<?xml version="1.0" encoding="utf-8"?>
<svg version="1.1" id="MAP.svg_1_" xmlns="http://www.w3.org/2000/svg" xmlns:xlink="http://www.w3.org/1999/xlink" x="0px" y="0px" viewBox="0 0 511 491" enable-background="new 0 0 511 491" xml:space="preserve">
<!-- 北海道 -->
<g id="hokkaido" class="js-area">
	<g id="hokkaido" class="js-pre">
		<path fill-rule="evenodd" clip-rule="evenodd" fill="#6FBA2C" class="js-pre-bg" d="M502.002,0.091h-29.978c-4.976,0-9.01,4.003-9.01,8.94V25h-73.122c-4.919,0-8.906,4.033-8.906,9.008v72.971c0,0.219,0.018,0.434,0.033,0.649c-0.016,0.213-0.033,0.427-0.033,0.644v18.775c0,4.937,3.987,8.94,8.906,8.94h15.14c4.919,0,8.906-4.003,8.906-8.94v-11.061h88.168c4.919,0,8.906-4.033,8.906-9.008V34.008v-0.001V9.031C511.013,4.094,506.979,0.091,502.002,0.091z"/>
		<path fill="#FFFFFF" d="M422.949,74.707c1.358-0.294,3.403-0.91,3.936-1.079V68.67h-3.88v-1.471h3.88v-3.348h1.485v13.181h-1.485v-1.905c-1.499,0.546-2.059,0.742-3.516,1.135L422.949,74.707z M430.19,63.852h1.485v4.244c1.316-0.729,2.591-1.765,3.334-2.438l1.106,1.219c-0.925,0.756-2.241,1.779-4.44,2.886v5.113c0,0.434,0.224,0.434,0.49,0.434h1.919c0.49,0,0.686,0,0.645-2.479l1.456,0.561c-0.056,1.863-0.168,3.404-1.456,3.404h-3.292c-0.252,0-1.247,0-1.247-1.093V63.852z"/>
		<path fill="#FFFFFF" d="M440.616,75.66c1.514-1.821,2.325-4.02,2.508-4.524l1.163,0.896c-0.617,2.017-1.793,3.838-2.662,4.973L440.616,75.66z M442.998,70.379c-0.799-0.616-1.274-0.911-2.311-1.414l0.757-1.205c0.882,0.351,1.61,0.771,2.381,1.331L442.998,70.379z M443.67,66.569c-0.574-0.49-1.148-0.911-2.297-1.485l0.799-1.163c0.924,0.378,1.582,0.742,2.395,1.387L443.67,66.569z M453.294,67.48c-0.015,0.49-0.042,2.619-0.057,3.054h0.813v1.176h-0.826c-0.015,0.574-0.028,0.827-0.126,2.017h0.742v1.205h-0.868c-0.126,1.079-0.253,2.073-1.85,2.073h-1.82l-0.238-1.219h1.82c0.575,0,0.631-0.336,0.686-0.854h-7.046c0.21-0.756,0.463-1.737,0.673-3.222h-0.757v-1.176h0.911c0.098-1.079,0.14-1.779,0.182-2.844c-0.168,0.182-0.252,0.266-0.714,0.714l-1.191-1.051c1.289-0.98,2.157-1.989,2.704-3.516l1.498,0.224c-0.111,0.378-0.195,0.588-0.392,1.022h6.611v1.289h-7.396c-0.267,0.336-0.406,0.519-0.925,1.107H453.294z M448.251,73.727c0.154-0.826,0.21-1.289,0.28-2.017h-1.934c-0.182,1.317-0.308,1.933-0.322,2.017H448.251z M448.643,70.533c0.028-0.588,0.042-0.785,0.112-1.863h-1.821c-0.042,0.462-0.084,0.98-0.182,1.863H448.643z M451.696,73.727c0.07-0.924,0.099-1.303,0.126-2.017h-1.961c-0.069,0.98-0.14,1.429-0.224,2.017H451.696z M451.864,70.533c0.015-0.714,0.028-0.995,0.028-1.863h-1.835c-0.014,0.49-0.028,0.63-0.098,1.863H451.864z"/>
		<path fill="#FFFFFF" d="M458.873,69.244h2.745v4.398c0.364,1.135,1.947,1.611,3.124,1.611h7.354l-0.238,1.359h-6.976c-2.577,0-3.25-1.106-3.529-1.597c-0.589,0.924-1.653,1.737-1.947,1.975l-0.687-1.653c0.07-0.028,0.994-0.574,1.484-1.065v-3.628h-1.33V69.244z M460.035,64.047c0.7,0.603,1.695,1.681,2.102,2.423l-1.19,0.953c-0.701-1.121-1.177-1.751-1.947-2.521L460.035,64.047z M471.941,66.555h-4.398c-0.111,0.252-0.224,0.49-0.378,0.743h3.979v7.158h-8.013v-7.158h2.662c0.126-0.295,0.21-0.616,0.237-0.743h-3.726v-1.247h2.115c-0.21-0.364-0.56-0.995-0.631-1.093l1.303-0.42c0.379,0.588,0.658,1.163,0.813,1.513h2.298c0.237-0.434,0.518-1.037,0.686-1.527l1.485,0.308c-0.112,0.21-0.183,0.336-0.715,1.219h2.283V66.555z M464.532,68.432v0.953h5.196v-0.953H464.532z M464.532,70.393v0.952h5.196v-0.952H464.532z M464.532,72.354v0.953h5.196v-0.953H464.532z"/>
	</g>
</g>
<!-- 東北 -->
<g id="tohoku" class="js-area">
	<g id="aomori" class="js-pre">
		<path fill-rule="evenodd" clip-rule="evenodd" fill="#6FBA2C" class="js-pre-bg" d="M480.142,158.993h-92.266c-4.899,0-8.872,3.981-8.872,8.892v18.127h110.008l0.002-18.127C489.014,162.975,485.042,158.993,480.142,158.993z"/>
		<path fill="#FFFFFF" d="M431.094,167.919h-5.407v0.658h4.833v1.037h-4.833v0.686h5.841v1.163h-13.139V170.3h5.855v-0.686h-4.805v-1.037h4.805v-0.658h-5.393v-1.177h5.393v-0.813h1.442v0.813h5.407V167.919z M429.931,172.051v5.701c0,0.896-0.308,1.358-1.261,1.358h-2.227l-0.322-1.358h2.045c0.238,0,0.322-0.112,0.322-0.266v-0.743h-7.13v2.367h-1.415v-7.06H429.931z M421.358,173.129v0.784h7.13v-0.784H421.358z M421.358,174.922v0.784h7.13v-0.784H421.358z"/>
		<path fill="#FFFFFF" d="M438.97,175.524c-0.98,1.779-1.793,2.578-2.171,2.956l-0.757-1.4c1.359-0.911,2.452-2.788,2.592-3.026h-2.353v-1.303h2.689v-1.401h1.331v1.401h2.144v1.303h-2.102c0.673,0.785,1.639,1.415,2.017,1.681l-1.008,1.064c-0.351-0.35-0.771-0.756-1.051-1.205v3.488h-1.331V175.524z M436.505,170.216c2.773-0.575,4.272-1.709,4.58-1.947h-4.216v-1.303h5.351v-1.05h1.331v1.05h5.309v1.303h-4.09c0.252,0.182,1.778,1.331,4.454,1.947l-0.645,1.415c-2.871-0.98-4.427-2.409-5.028-3.025v3.011h-1.331v-2.843c-0.91,0.855-2.493,1.933-5.043,2.843L436.505,170.216zM446.828,174.054c0.728,1.135,1.667,2.143,2.815,2.857l-0.882,1.317c-0.547-0.49-1.275-1.148-2.172-2.647v3.502h-1.33v-3.39c-0.799,1.12-1.415,1.737-2.704,2.703l-0.924-1.022c0.63-0.392,2.339-1.443,3.432-3.32h-1.892v-1.303h2.088v-1.401h1.33v1.401h2.844v1.303H446.828z"/>
	</g>
	<g id="iwate" class="js-pre">
		<polygon fill-rule="evenodd" clip-rule="evenodd" fill="#6FBA2C" class="js-pre-bg" points="434.987,190.01 434.987,227.013 488.991,227.013 489.012,190.01"/>
		<path fill="#FFFFFF" d="M458.527,209.238v5.379h-9.427v-3.264c-0.477,0.42-0.911,0.798-1.976,1.429l-0.813-1.303c0.911-0.49,2.872-1.625,4.021-3.866h-3.838v-1.331h13.055v1.331h-7.578c-0.322,0.672-0.574,1.079-0.967,1.625H458.527zM448.722,203.874h3.614v-2.171h1.415v2.171h3.586v-1.793h1.442v3.109h-11.458v-3.109h1.4V203.874z M457.07,210.555h-6.569v2.704h6.569V210.555z"/>
		<path fill="#FFFFFF" d="M470.185,203.775c-0.728,0.028-4.3,0.168-5.099,0.168l-0.14-1.429c3.782,0.042,7.563-0.07,11.275-0.827l0.406,1.415c-0.868,0.14-2.381,0.392-4.958,0.602v1.947h5.127v1.401h-5.127v1.933h5.799v1.401h-5.799v3.222c0,1.247-0.967,1.275-1.079,1.275h-3.165l-0.28-1.443h2.619c0.182,0,0.42,0,0.42-0.322v-2.732H464.4v-1.401h5.785v-1.933h-5.099v-1.401h5.099V203.775z"/>
	</g>
	<g id="miyagi" class="js-pre">
		<polygon fill-rule="evenodd" clip-rule="evenodd" fill="#6FBA2C" class="js-pre-bg" points="488.991,231.01 434.987,231.01 434.987,267.995 489.009,267.995"/>
		<path fill="#FFFFFF" d="M457.869,247.014v-1.905h-9.638v1.905h-1.456v-3.249h5.49v-1.036h1.471v1.036h5.575v3.249H457.869zM457.183,250.067h-3.46c-0.112,0.448-0.154,0.603-0.294,1.12h5.141v4.44h-11.052v-4.44h4.398c0.154-0.462,0.21-0.63,0.322-1.12h-3.362v-3.992h8.307V250.067z M457.127,252.393h-8.195v2.031h8.195V252.393z M455.852,247.252h-5.645v1.61h5.645V247.252z"/>
		<path fill="#FFFFFF" d="M466.796,254.872c0.477-0.505,1.135-1.219,1.485-2.451c-0.771,0.476-2.788,1.219-3.908,1.54l-0.154-1.484c0.406-0.084,0.7-0.14,1.583-0.42v-4.595h-1.429v-1.386h1.429v-3.362h1.345v3.362h1.051v1.386h-1.051v4.132c0.645-0.237,0.813-0.322,1.051-0.434l0.098,1.204c0.252-0.966,0.378-2.591,0.378-2.941v-4.636h4.679c-0.028-1.499-0.028-1.667-0.028-2.073h1.387c0,0.294,0.028,1.681,0.042,2.073h1.625c-0.378-0.504-0.532-0.714-1.317-1.429l0.98-0.785c0.686,0.504,1.232,1.191,1.429,1.443l-0.938,0.771h1.009v1.345h-2.76c0.084,3.025,0.098,3.361,0.225,4.243c0.63-1.33,0.897-2.493,1.078-3.348l1.331,0.364c-0.21,0.841-0.757,3.012-2.018,5.001c0.099,0.351,0.463,1.681,0.658,1.681c0.211,0,0.574-1.064,0.686-1.442l1.023,0.883c-0.21,0.643-0.756,2.352-1.736,2.352c-0.532,0-1.022-0.252-1.667-2.115c-1.163,1.191-2.031,1.709-2.662,2.073l-0.868-1.232c0.729-0.336,1.934-0.925,3.096-2.395c-0.378-1.709-0.504-4.273-0.546-6.064h-3.32v1.694h2.773c0,2.129,0,4.496-0.378,5.281c-0.336,0.672-0.757,0.672-1.345,0.672h-0.826l-0.225-1.303h0.911c0.252,0,0.35-0.056,0.406-0.182c0.126-0.322,0.153-1.051,0.237-3.166h-1.555v0.546c0,0.785-0.224,2.298-0.448,3.236c-0.35,1.456-0.771,2.031-1.541,2.928L466.796,254.872z"/>
	</g>
	<g id="akita" class="js-pre">
		<rect x="379.004" y="190.01" fill-rule="evenodd" clip-rule="evenodd" fill="#6FBA2C" class="js-pre-bg" width="51.986" height="37.003"/>
		<path fill="#FFFFFF" d="M392.439,203.593c-0.63,0.056-1.148,0.084-1.877,0.112l-0.252-1.274c1.19-0.014,2.857-0.112,4.847-0.645l0.546,1.275c-0.475,0.126-0.938,0.266-1.891,0.392v1.975h1.891v1.345h-1.891v0.098c0.182,0.378,0.841,1.597,2.059,2.717l-0.91,1.232c-0.729-0.826-0.91-1.176-1.148-1.639v5.673h-1.373v-5.575c-0.406,1.05-0.897,1.793-1.709,2.788l-0.644-1.583c0.378-0.406,1.372-1.457,2.297-3.712h-2.073v-1.345h2.129V203.593z M400.269,201.688v4.847c0,1.667,0.518,3.278,1.261,4.777c0.616,1.247,1.583,1.961,2.088,2.339l-0.883,1.331c-1.947-1.597-2.661-3.194-3.18-4.945c-0.771,2.354-2.228,3.936-3.922,4.818l-0.925-1.19c1.499-0.826,4.104-2.493,4.104-7.046v-4.931H400.269z M397.131,203.733c0.49,1.891,0.645,3.053,0.715,4.356l-1.415,0.196c-0.056-1.821-0.546-3.754-0.658-4.244L397.131,203.733z M403.56,203.901c-0.308,1.667-0.602,2.998-1.093,4.426l-1.387-0.364c0.421-1.247,0.827-2.998,0.98-4.37L403.56,203.901z"/>
		<path fill="#FFFFFF" d="M420.725,202.374v12.145h-11.921v-12.145H420.725z M414.043,203.747h-3.811v3.922h3.811V203.747zM414.043,209h-3.811v4.132h3.811V209z M419.281,203.747h-3.852v3.922h3.852V203.747z M419.281,209h-3.852v4.132h3.852V209z"/>
	</g>
	<g id="yamagata" class="js-pre">
		<rect x="379.007" y="231.01" fill-rule="evenodd" clip-rule="evenodd" fill="#6FBA2C" class="js-pre-bg" width="51.983" height="36.985"/>
		<path fill="#FFFFFF" d="M397.607,242.728v11.346h3.838v-8.936h1.513v10.407h-12.172v-10.407h1.498v8.936h3.811v-11.346H397.607z"/>
		<path fill="#FFFFFF" d="M413.048,255.895v-6.766h-1.778v0.393c0,3.81-1.457,5.505-2.073,6.232l-1.135-1.232c0.91-0.939,1.765-2.087,1.765-5.043v-0.35h-1.583V247.7h1.583v-2.984h-1.303v-1.415h7.046v1.415h-1.106v2.984h1.331v1.429h-1.331v6.766H413.048z M411.27,244.716v2.984h1.778v-2.984H411.27z M421.425,251.594c-0.883,1.359-2.718,3.04-5.183,4.301l-1.051-1.345c1.849-0.616,4.132-2.367,5.211-4.076L421.425,251.594z M421.215,247.35c-1.149,1.415-3.026,2.718-4.833,3.572l-0.813-1.274c1.611-0.589,3.6-1.976,4.665-3.264L421.215,247.35z M420.92,243.582c-1.526,1.737-3.684,2.732-4.37,3.039l-0.826-1.232c1.429-0.588,2.997-1.583,4.034-2.788L420.92,243.582z"/>
	</g>
	<g id="fukushima" class="js-pre">
		<rect x="400.007" y="271.992" fill-rule="evenodd" clip-rule="evenodd" fill="#6FBA2C" class="js-pre-bg" width="88.998" height="38.008"/>
		<path fill="#FFFFFF" d="M433.005,292.913c-0.505-0.645-0.785-1.009-1.219-1.639v6.023h-1.415v-5.323c-0.729,0.715-1.036,0.938-1.457,1.219l-0.561-1.499c1.709-1.148,2.83-2.605,3.488-3.979h-3.208v-1.26h1.737v-2.284h1.415v2.284h1.513v1.26c-0.196,0.575-0.393,1.009-1.177,2.13c0.574,0.672,0.826,0.966,1.484,1.498v-0.784h7.691v6.458h-7.691v-5.099L433.005,292.913z M441.759,285.741h-8.517v-1.163h8.517V285.741z M440.835,289.831h-6.71v-3.348h6.71V289.831z M436.856,291.652h-1.933v1.597h1.933V291.652z M436.856,294.286h-1.933v1.61h1.933V294.286z M439.518,287.534h-4.076v1.247h4.076V287.534zM439.98,291.652h-1.919v1.597h1.919V291.652z M439.98,294.286h-1.919v1.61h1.919V294.286z"/>
		<path fill="#FFFFFF" d="M453.824,295.421v-1.667h1.372v2.857h-8.418v-2.857h1.387v1.667h2.143v-2.115h-2.423v-8.293h3.964c0.126-0.252,0.238-0.603,0.309-0.896l1.583,0.07c-0.084,0.294-0.196,0.561-0.322,0.826h4.916v4.637h-9.007v0.686h10.296v1.078h-10.296v0.784h9.932c-0.154,3.824-0.477,5.071-1.933,5.071h-1.695l-0.252-1.373h1.4c0.547,0,0.7-0.126,0.799-0.645c0.098-0.588,0.154-1.358,0.168-1.946h-6.079v2.115H453.824z M456.878,286.105h-7.551v0.771h7.551V286.105z M456.878,287.801h-7.551v0.826h7.551V287.801z"/>
	</g>
</g>
<!-- 関東 -->
<g id="kanto" class="js-area">
	<g id="ibaraki" class="js-pre">
		<rect x="449.985" y="314.002" fill-rule="evenodd" clip-rule="evenodd" fill="#6FBA2C" class="js-pre-bg" width="39.019" height="53.008"/>
		<path fill="#FFFFFF" d="M462.746,338.063c1.373-1.009,2.479-2.438,3.026-3.25l0.966,0.939c-0.854,1.219-1.751,2.241-3.18,3.544L462.746,338.063z M467.145,326.618v1.051h4.595v-1.051h1.345v1.051h2.815v1.316h-2.815v1.051h-1.345v-1.051h-4.595v1.051h-1.358v-1.051H462.9v-1.316h2.886v-1.051H467.145z M465.786,332.852c-1.19-0.798-1.443-0.967-2.731-1.457l0.658-1.078c0.462,0.168,1.373,0.477,2.886,1.4L465.786,332.852z M465.59,338.272c0.742-0.266,2.27-0.798,3.208-1.849c0.882-0.995,1.526-2.451,1.526-3.376v-0.42h1.401v0.28c0,0.574,0.308,2.156,1.513,3.432c1.093,1.148,2.255,1.681,2.787,1.933l-0.897,1.261c-1.555-0.672-3.151-2.297-4.048-4.342c-0.896,2.199-2.564,3.586-4.637,4.342L465.59,338.272z M466.444,333.37c1.807-1.499,2.479-2.788,2.76-3.95l1.372,0.294c-0.098,0.364-0.182,0.645-0.378,1.106h5.463v1.289c-0.322,0.896-0.798,1.975-1.681,2.983l-1.163-0.84c0.715-0.827,1.093-1.345,1.429-2.143h-4.748c-0.757,1.162-1.541,1.891-1.863,2.199L466.444,333.37z"/>
		<path fill="#FFFFFF" d="M465.226,355.186c0.477-0.505,1.135-1.219,1.485-2.451c-0.77,0.476-2.788,1.219-3.908,1.541l-0.154-1.485c0.406-0.084,0.7-0.14,1.583-0.42v-4.595h-1.429v-1.387h1.429v-3.362h1.345v3.362h1.051v1.387h-1.051v4.132c0.645-0.237,0.813-0.321,1.051-0.434l0.098,1.204c0.252-0.966,0.378-2.591,0.378-2.941V345.1h4.679c-0.028-1.498-0.028-1.667-0.028-2.073h1.387c0,0.295,0.028,1.682,0.042,2.073h1.625c-0.378-0.504-0.532-0.714-1.316-1.429l0.98-0.784c0.686,0.504,1.232,1.19,1.429,1.442l-0.939,0.771h1.009v1.345h-2.76c0.084,3.026,0.098,3.362,0.225,4.245c0.63-1.331,0.896-2.494,1.078-3.349l1.331,0.364c-0.21,0.841-0.757,3.012-2.018,5.001c0.099,0.351,0.463,1.681,0.658,1.681c0.211,0,0.574-1.064,0.686-1.442l1.022,0.882c-0.21,0.645-0.756,2.354-1.736,2.354c-0.532,0-1.022-0.252-1.667-2.115c-1.163,1.191-2.031,1.709-2.662,2.073l-0.868-1.232c0.728-0.336,1.934-0.925,3.096-2.396c-0.378-1.709-0.504-4.272-0.546-6.065h-3.32v1.695h2.773c0,2.129,0,4.496-0.378,5.281c-0.336,0.672-0.757,0.672-1.345,0.672h-0.826l-0.225-1.303h0.911c0.252,0,0.35-0.056,0.406-0.182c0.126-0.322,0.153-1.051,0.237-3.166h-1.555v0.546c0,0.785-0.224,2.298-0.448,3.236c-0.35,1.456-0.771,2.031-1.541,2.928L465.226,355.186z"/>
	</g>
	<g id="chiba" class="js-pre">
		<path fill-rule="evenodd" clip-rule="evenodd" fill="#6FBA2C" class="js-pre-bg" d="M489.008,371.008h-39.022v51.994h0.014v3.638l0.045,31.476c0,4.929,3.965,8.926,8.857,8.926h21.257c4.892,0,8.857-3.997,8.857-8.926v-40.367v-46.205L489.008,371.008z"/>
		<path fill="#FFFFFF" d="M468.588,406.477c-0.715,0.015-4.175,0.141-4.959,0.127l-0.252-1.457c2.521,0.014,7.676-0.057,10.813-0.813l0.826,1.429c-0.728,0.168-2.045,0.462-4.902,0.645v2.941h5.911v1.484h-5.911v6.668h-1.526v-6.668h-5.842v-1.484h5.842V406.477z"/>
		<path fill="#FFFFFF" d="M466.15,423.263v-0.477h-3.376v-1.261h3.376v-0.686h1.415v0.686h3.628v-0.686h1.429v0.686h3.333v1.261h-3.333v0.813h-1.429v-0.813h-3.628v0.813h-1.415v0.378h2.507v-0.714h1.359v0.714h2.633v-0.714h1.401v0.714h1.904v1.177h-1.904v1.821h-5.394v-1.821h-2.507v2.409h8.95v1.135h-5.028v0.729h5.883v1.219h-4.566c0.49,0.322,2.059,1.303,4.749,1.695l-0.757,1.414c-2.843-0.672-4.496-1.904-5.309-2.689v2.956h-1.387v-2.941c-0.938,0.98-2.619,2.003-5.421,2.689l-0.645-1.429c2.479-0.379,4.007-1.106,4.818-1.695h-4.664v-1.219h5.911v-0.729h-3.964v-3.544h-1.947v-1.177h1.947v-0.714H466.15zM470.017,425.153v0.785h2.633v-0.785H470.017z"/>
	</g>
	<g id="tochigi" class="js-pre">
		<rect x="415.007" y="314.002" fill-rule="evenodd" clip-rule="evenodd" fill="#6FBA2C" class="js-pre-bg" width="30.982" height="39.004"/>
		<path fill="#FFFFFF" d="M423.984,328.004c0.49-0.658,1.302-1.736,1.933-4.552h-1.737v-1.373h1.835v-2.564h1.331v2.564h1.568v1.373h-1.568v0.266c0.588,1.611,1.261,2.34,1.751,2.83l-0.7,1.274c-0.603-0.883-0.742-1.148-1.051-1.933v6.724h-1.331v-6.094c-0.434,1.569-0.813,2.353-1.484,3.362L423.984,328.004z M433.761,325.469c0,0.099-0.014,0.238-0.014,0.336h3.151c-0.027,2.605-0.168,5.058-0.434,5.884c-0.238,0.771-0.7,0.925-1.583,0.925h-1.555l-0.252-1.401h1.597c0.21,0,0.378-0.014,0.532-0.406c0.21-0.546,0.35-3.277,0.336-3.684h-1.891c-0.49,3.502-1.653,4.706-2.521,5.491l-0.938-1.121c0.854-0.784,2.241-2.045,2.241-6.037v-1.135h-1.513v1.611c0,1.723-0.477,3.81-0.589,4.244c-0.294,1.12-0.798,1.862-1.232,2.438l-1.064-1.121c0.561-0.841,1.442-2.213,1.442-5.575v-5.827c2.367,0.057,4.749,0.015,7.032-0.574l0.658,1.261c-2.228,0.561-5.267,0.645-6.247,0.645v1.526h6.415v1.373h-3.572V325.469z"/>
		<path fill="#FFFFFF" d="M423.914,346.106c2.367-1.513,3.964-3.249,5.603-6.079h-5.337v-1.415h5.814v-2.619h1.499v2.619h5.854v1.415h-5.351c1.499,2.689,2.998,4.286,5.603,5.995l-0.953,1.457c-2.633-1.877-3.908-3.6-5.154-5.883v7.578h-1.499v-7.593c-1.569,3.012-3.446,4.721-5.169,5.939L423.914,346.106z"/>
	</g>
	<g id="gunma" class="js-pre">
		<rect x="379.016" y="314.002" fill-rule="evenodd" clip-rule="evenodd" fill="#6FBA2C" class="js-pre-bg" width="31.995" height="39.004"/>
		<path fill="#FFFFFF" d="M394.374,326.402v4.958h-4.818v-3.222c-0.238,0.267-0.35,0.364-0.561,0.574l-0.685-1.246c0.643-0.589,1.078-1.148,1.498-2.171h-1.05v-1.205h1.414c0.07-0.351,0.141-0.7,0.196-1.303h-1.989v-1.219h2.045v-1.289h-1.666v-1.204h5.616v2.493h0.617v1.219h-0.617v2.508h-3.151c-0.112,0.321-0.196,0.546-0.462,1.106H394.374z M393.071,327.606h-2.198v2.493h2.198V327.606z M391.713,322.788c-0.014,0.224-0.056,0.603-0.182,1.303h1.526v-1.303H391.713z M391.77,321.569h1.288v-1.289h-1.288V321.569z M396.237,320.827c-0.126-0.616-0.392-1.457-0.63-2.087l1.429-0.183c0.448,1.247,0.574,1.808,0.658,2.27h1.162c0.238-0.7,0.547-1.681,0.729-2.353L401,318.74c-0.098,0.322-0.49,1.555-0.729,2.087h1.121v1.358h-2.466v1.821h2.255v1.331h-2.255v1.849h2.605v1.373h-2.605v3.138h-1.387v-3.138h-2.549v-1.373h2.549v-1.849h-2.087v-1.331h2.087v-1.821h-2.255v-1.358H396.237z"/>
		<path fill="#FFFFFF" d="M390.732,344.027c-0.154,1.639-0.56,2.955-1.232,4.23l-1.205-1.064c0.686-1.247,0.939-2.368,1.037-3.391L390.732,344.027z M400.79,336.813h-4.902v0.994h4.328v1.106h-4.328v0.995h4.328v1.078h-4.328v0.995h5.267c-0.042,2.255-0.267,4.664-0.686,5.477c-0.378,0.729-1.023,0.742-1.247,0.742h-2.157l-0.364-1.541l2.031,0.07c0.337,0.015,0.463-0.21,0.532-0.42c0.238-0.631,0.351-2.647,0.379-3.096h-10.24v-7.676h11.389V336.813z M390.788,336.813v0.994h3.768v-0.994H390.788z M390.788,338.914v0.995h3.768v-0.995H390.788z M390.788,340.987v0.995h3.768v-0.995H390.788zM392.792,344.266c0.308,1.261,0.392,2.297,0.392,3.319l-1.499,0.112c0.042-1.037,0-2.115-0.266-3.432H392.792z M395.173,344.069c0.406,0.952,0.645,1.807,0.826,2.829l-1.442,0.309c-0.07-0.574-0.225-1.625-0.715-2.998L395.173,344.069z M397.792,343.845c0.351,0.659,0.574,1.177,0.799,1.919l-1.358,0.379c-0.196-0.7-0.435-1.331-0.813-2.102L397.792,343.845z"/>
	</g>
	<g id="saitama" class="js-pre">
		<rect x="379.016" y="357.097" fill-rule="evenodd" clip-rule="evenodd" fill="#6FBA2C" class="js-pre-bg" width="66.973" height="30.91"/>
		<path fill="#FFFFFF" d="M397.794,375.951c0.42-0.084,0.883-0.154,1.765-0.379v-4.79h-1.54v-1.345h1.54v-3.376h1.387v3.376h1.303v1.345h-1.303v4.44c0.547-0.154,0.841-0.252,1.247-0.406l0.112,1.288c-0.995,0.393-3.054,1.064-4.343,1.331L397.794,375.951zM411.157,371.553v1.246h-0.798v5.183c0,1.163-0.771,1.177-1.569,1.177h-2.144l-0.364-1.372h1.808c0.784,0,0.868,0,0.868-0.659v-4.328h-6.71v-1.246H411.157z M402.486,370.18c0.574-0.196,1.961-0.631,2.704-1.625h-2.704v-1.274h3.264c0.127-0.574,0.141-0.953,0.154-1.303h1.471c-0.027,0.406-0.056,0.77-0.182,1.303h3.754v1.274h-2.661c0.7,0.799,1.849,1.289,3.039,1.513l-0.672,1.331c-2.773-1.009-3.544-2.283-3.88-2.844h-0.028c-1.009,1.976-2.914,2.605-3.643,2.857L402.486,370.18z M402.893,377.254v-3.713h4.945v3.713H402.893z M404.182,374.662v1.429h2.396v-1.429H404.182z"/>
		<path fill="#FFFFFF" d="M416.513,366.44h12.06v1.415h-5.352v3.6h4.763v1.359h-4.763v4.44h5.8v1.387h-13.014v-1.387h5.701v-4.44h-4.65v-1.359h4.65v-3.6h-5.196V366.44z M425.575,373.205c0.477,0.532,1.611,2.045,1.989,2.914l-1.316,0.784c-0.883-1.583-1.219-2.171-1.85-3.012L425.575,373.205z"/>
	</g>
	<g id="tokyo" class="js-pre">
		<rect x="379.016" y="392.004" fill-rule="evenodd" clip-rule="evenodd" fill="#6FBA2C" class="js-pre-bg" width="66.973" height="30.998"/>
		<path fill="#FFFFFF" d="M411.115,402.825h-5.813v0.826h4.945v5.337h-3.895c1.905,1.808,4.231,2.592,4.987,2.815l-0.827,1.443c-1.345-0.519-3.726-1.934-5.211-3.656v3.908h-1.4v-3.908c-1.583,1.933-3.824,3.208-5.099,3.67l-0.925-1.303c1.681-0.504,3.502-1.555,4.889-2.97h-3.768v-5.337h4.902v-0.826h-5.855v-1.316h5.855v-1.121h1.4v1.121h5.813V402.825zM400.371,405.753h3.53v-0.925h-3.53V405.753z M400.371,407.826h3.53v-0.967h-3.53V407.826z M405.302,404.828v0.925h3.586v-0.925H405.302z M405.302,406.859v0.967h3.586v-0.967H405.302z"/>
		<path fill="#FFFFFF" d="M415.798,412.154c1.808-1.163,2.773-2.592,3.11-3.067l1.246,0.756c-0.266,0.378-1.597,2.27-3.334,3.432L415.798,412.154z M429.035,402.965h-13.083v-1.429h5.743v-1.19h1.513v1.19h5.827V402.965z M427.635,408.666h-4.427v3.572c0,0.364-0.042,1.345-1.247,1.345h-2.283l-0.266-1.471h1.947c0.308,0,0.462,0,0.462-0.378v-3.068h-4.454v-4.65h10.268V408.666zM426.206,405.318h-7.439v2.045h7.439V405.318z M425.869,409.045c1.023,1.33,1.934,2.143,3.236,2.899l-0.98,1.246c-1.653-0.98-2.396-1.849-3.517-3.39L425.869,409.045z"/>
	</g>
	<g id="kanagawa" class="js-pre">
		<path fill-rule="evenodd" clip-rule="evenodd" fill="#6FBA2C" class="js-pre-bg" d="M392.998,426.999v26.993l44.035,0.011c4.955,0,8.973-4.023,8.973-8.985v-18.019H392.998z"/>
		<path fill="#FFFFFF" d="M403.617,442.419c-0.238-0.183-0.658-0.532-1.358-1.317v5.701h-1.387v-5.322c-0.589,0.517-0.967,0.813-1.611,1.246l-0.588-1.442c0.924-0.589,2.857-1.947,3.81-4.105h-3.586v-1.387h1.976v-2.144h1.387v2.144h1.652v1.387c-0.322,0.939-0.672,1.555-1.288,2.438c0.588,0.63,1.33,1.204,1.681,1.471L403.617,442.419z M408.73,433.649v2.172h2.927v7.956h-2.927v3.025h-1.373v-2.997h-2.928v-7.984h2.928v-2.172H408.73z M407.357,437.151h-1.583v1.947h1.583V437.151zM407.357,440.373h-1.583v2.073h1.583V440.373z M410.313,437.151h-1.582v1.947h1.582V437.151z M410.313,440.373h-1.582v2.073h1.582V440.373z"/>
		<path fill="#FFFFFF" d="M417.113,443.596c-1.19,1.429-2.073,2.171-3.502,3.011l-0.813-1.218c1.652-0.854,2.507-1.695,3.208-2.564L417.113,443.596z M416.007,438.833c-1.079,0.686-1.85,0.98-2.466,1.219l-0.658-1.387c1.036-0.379,3.166-1.149,4.189-2.48h-3.936v-1.331h4.665c0.195-0.448,0.294-0.77,0.406-1.205l1.61,0.099c-0.168,0.435-0.294,0.756-0.462,1.107h6.514v1.331h-3.853c0.742,0.924,2.409,1.877,4.146,2.409l-0.7,1.471c-0.56-0.238-1.373-0.589-2.536-1.387v0.91h-6.919V438.833z M426.008,442.194h-5.715v3.586c0,1.037-0.799,1.037-1.177,1.037h-1.947l-0.322-1.429h1.639c0.169,0,0.379,0,0.379-0.364v-2.83h-5.897v-1.345h13.041V442.194z M422.422,438.301c-1.4-1.037-1.891-1.821-2.087-2.115h-1.681c-0.575,0.966-1.191,1.555-1.919,2.115H422.422zM425.056,446.397c-1.555-0.924-1.976-1.33-3.32-2.774l1.19-0.91c1.457,1.681,2.34,2.157,3.082,2.507L425.056,446.397z"/>
		<path fill="#FFFFFF" d="M428.311,433.649h1.513v5.478c0,2.087,0,2.605-0.308,4.188c-0.253,1.274-0.757,2.535-1.667,3.571l-1.121-1.177c1.401-2.185,1.583-3.697,1.583-6.597V433.649z M432.906,434.112h1.526v11.71h-1.526V434.112z M437.753,433.649h1.513v13.21h-1.513V433.649z"/>
	</g>
</g>
<!-- 甲信越・北陸 -->
<g id="koshinetsu-hokuriku" class="js-area">
	<g id="niigata" class="js-pre">
		<polygon fill-rule="evenodd" clip-rule="evenodd" fill="#6FBA2C" class="js-pre-bg" points="354.005,272.01 354.005,310 396.01,310 396.01,271.992 "/>
		<path fill="#FFFFFF" d="M359.491,295.46c0.91-0.617,1.961-1.359,2.844-2.62h-2.438v-1.288h2.843v-1.303h-2.913v-1.275h1.555c-0.014-0.111-0.154-1.246-0.42-2.003h-0.854v-1.274h2.633v-1.163h1.346v1.163h2.423v1.274h-0.658c-0.294,1.289-0.322,1.443-0.505,2.003h1.373v1.275h-2.633v1.303h2.311v1.288h-2.045c0.322,0.393,0.91,1.093,1.723,1.598l-0.7,1.26c-0.728-0.7-0.896-0.924-1.288-1.498v3.516h-1.346v-3.488c-1.148,1.527-1.946,2.143-2.479,2.521L359.491,295.46zM362.236,286.971c0.21,0.673,0.42,1.835,0.435,2.003h1.415c0.168-0.56,0.363-1.498,0.434-2.003H362.236z M372.924,285.851c-1.274,0.603-2.829,0.994-4.328,1.051v2.129h4.328v1.345h-1.372v7.34h-1.457v-7.34h-1.499v0.378c0,3.908-0.771,5.407-1.877,6.962l-1.358-0.938c1.219-1.457,1.835-2.886,1.835-5.982v-5.211c2.465,0.042,4.02-0.616,4.931-1.051L372.924,285.851z"/>
		<path fill="#FFFFFF" d="M379.919,292.728c-0.757,2.913-1.289,4.062-1.807,4.889l-1.219-1.079c0.574-0.91,1.177-2.073,1.82-4.469L379.919,292.728z M377.748,288.483c1.051,0.519,1.652,0.967,2.143,1.345l-0.84,1.149c-0.7-0.575-1.163-0.883-2.073-1.359L377.748,288.483z M378.435,284.716c0.868,0.42,1.709,0.98,2.114,1.261l-0.897,1.261c-0.811-0.7-1.526-1.121-2.087-1.401L378.435,284.716z M379.919,296.65c0.336-0.463,0.841-1.19,1.387-2.899c-0.112,0.084-0.336,0.237-0.49,0.35l-0.883-1.078c0.435-0.294,1.863-1.232,2.634-2.634h-1.4v-5.337c1.05-0.042,2.199-0.154,3.571-0.476l0.463,1.19c-0.967,0.224-2.382,0.322-2.662,0.336v1.051h2.354v1.051h-2.354v0.994h5.814v-0.994h-2.297v-1.051h2.297v-0.896h-2.661v-1.205h4.048v5.337h-5.715c-0.126,0.294-0.225,0.532-0.477,0.967h6.388c0.042,2.311-0.084,3.74-0.238,4.818c-0.196,1.274-0.742,1.513-1.639,1.513h-2.087l-0.28-1.372h2.003c0.532,0,0.603-0.141,0.686-0.603c0.056-0.294,0.195-1.443,0.195-3.11h-6.009c-0.196,0.225-0.448,0.49-0.994,0.939l0.994,0.252c-0.28,1.303-0.729,2.577-1.484,3.684L379.919,296.65z M384.205,293.667c0.042,0.518,0.099,1.148,0.099,1.933c0,0.504-0.015,0.994-0.028,1.345l-1.205,0.07c0.042-0.56,0.084-1.093,0.084-1.653c0-0.504-0.042-1.106-0.084-1.694H384.205zM385.928,293.414c0.196,0.785,0.28,1.331,0.406,2.466l-1.19,0.21c-0.014-0.784-0.056-1.387-0.252-2.507L385.928,293.414zM387.539,293.008c0.448,1.163,0.588,1.766,0.673,2.102l-1.051,0.364c-0.168-0.883-0.252-1.274-0.574-2.186L387.539,293.008z"/>
	</g>
	<g id="toyama" class="js-pre">
		<polygon fill-rule="evenodd" clip-rule="evenodd" fill="#6FBA2C" class="js-pre-bg" points="321.988,271.993 321.988,310 350.008,310 350.008,272.01"/>
		<path fill="#FFFFFF" d="M336.712,276.368v0.925h5.604v3.208h-1.442v-1.976h-9.708v1.976h-1.442v-3.208h5.561v-0.925H336.712zM341.643,289.298h-11.29v-5.043h11.29V289.298z M340.677,283.652h-9.386v-2.745h9.386V283.652z M335.311,285.222h-3.558v1.008h3.558V285.222z M335.311,287.154h-3.558v1.106h3.558V287.154z M331.823,279.185h8.377v1.05h-8.377V279.185z M339.304,281.888h-6.626v0.798h6.626V281.888z M340.228,285.222h-3.544v1.008h3.544V285.222z M340.228,287.154h-3.544v1.106h3.544V287.154z"/>
		<path fill="#FFFFFF" d="M336.74,292.063v11.346h3.838v-8.936h1.513v10.407h-12.172v-10.407h1.498v8.936h3.811v-11.346H336.74z"/>
	</g>
	<g id="ishikawa" class="js-pre">
		<path fill-rule="evenodd" clip-rule="evenodd" fill="#6FBA2C" class="js-pre-bg" d="M317.988,256.805c0-4.911-3.953-8.893-8.83-8.893h-10.322c-4.877,0-8.83,3.982-8.83,8.893L290.008,310h27.984L317.988,256.805z"/>
		<path fill="#FFFFFF" d="M308.97,270.417v7.578h-9.385v-5.365c-0.854,0.896-1.653,1.485-1.975,1.724l-0.925-1.303c2.396-1.724,3.642-3.222,4.454-5.982h-4.328v-1.457h13.181v1.457h-7.283c-0.295,1.135-0.631,2.031-1.429,3.348H308.97zM307.514,271.804h-6.486v4.805h6.486V271.804z"/>
		<path fill="#FFFFFF" d="M298.24,281.656h1.513v5.478c0,2.087,0,2.605-0.308,4.189c-0.253,1.274-0.757,2.535-1.667,3.571l-1.121-1.177c1.401-2.185,1.583-3.697,1.583-6.597V281.656z M302.835,282.119h1.526v11.71h-1.526V282.119z M307.682,281.656h1.513v13.21h-1.513V281.656z"/>
	</g>
	<g id="nagano" class="js-pre">
		<polygon fill-rule="evenodd" clip-rule="evenodd" fill="#6FBA2C" class="js-pre-bg" points="354.005,314.002 354.005,314.012 353.991,314.012 353.991,367 374.986,367 374.986,314.002 		"/>
		<path fill="#FFFFFF" d="M358.251,336.851c0.111-0.015,1.471-0.112,1.723-0.141v-3.781h-1.723v-1.247h1.723v-6.094h10.338v1.289h-8.77v0.868h8.265v1.093h-8.265v0.869h8.265v1.092h-8.265v0.883h9.764v1.247h-1.499l0.771,0.672c-0.91,0.729-1.905,1.345-2.928,1.905c0.603,0.322,1.947,0.98,3.965,1.316l-0.673,1.541c-2.228-0.631-6.177-2.003-7.788-5.435h-1.611v3.67c1.331-0.112,2.199-0.183,3.74-0.49v1.316c-1.933,0.448-5.841,0.742-6.682,0.798L358.251,336.851z M364.624,332.929c0.21,0.392,0.519,0.952,1.765,1.807c0.715-0.406,1.934-1.261,2.592-1.807H364.624z"/>
		<path fill="#FFFFFF" d="M358.194,352.852c0.505-0.028,1.051-0.07,2.984-0.266v-1.472h-2.676v-1.288h2.676v-1.274h-2.62v-6.332h6.598v6.332h-2.718v1.274h2.844v1.288h-2.844v1.331c0.322-0.042,2.83-0.378,2.942-0.393v1.317c-1.85,0.392-6.374,0.84-7.074,0.91L358.194,352.852z M359.89,343.438v1.331h1.289v-1.331H359.89z M359.89,345.932v1.401h1.289v-1.401H359.89z M362.439,343.438v1.331h1.388v-1.331H362.439z M362.439,345.932v1.401h1.388v-1.401H362.439z M367.243,343.929c0.267,0.141,0.379,0.196,1.219,0.799c0.673-0.658,0.953-1.022,1.107-1.233h-3.936v-1.274h5.435v1.219c-0.49,0.938-1.33,1.751-1.639,2.045c0.448,0.393,0.574,0.519,0.757,0.715l-0.659,0.771h1.835v1.303c-0.111,0.7-0.392,1.807-0.826,2.703l-1.246-0.448c0.378-0.729,0.616-1.442,0.756-2.255h-1.12v5.574c0,0.799-0.49,1.051-1.079,1.051h-2.059l-0.154-1.498h1.484c0.141,0,0.421,0,0.421-0.295v-4.832h-2.157v-1.303h3.502c-0.141-0.154-1.387-1.415-2.479-2.073L367.243,343.929z"/>
	</g>
	<g id="yamanashi" class="js-pre">
		<rect x="353.991" y="371" fill-rule="evenodd" clip-rule="evenodd" fill="#6FBA2C" class="js-pre-bg" width="20.995" height="52.002"/>
		<path fill="#FFFFFF" d="M365.521,382.196v11.346h3.838v-8.936h1.513v10.407h-12.172v-10.407h1.498v8.936h3.81v-11.346H365.521z"/>
		<path fill="#FFFFFF" d="M361.263,400.326c-0.631,0.042-1.261,0.07-2.452,0.057l-0.168-1.135c2.088,0.028,4.272-0.07,5.8-0.574l0.476,1.177c-0.294,0.084-0.868,0.237-2.367,0.392v0.799h2.704v1.204h-2.382c0.351,0.379,1.037,1.065,2.228,1.737l-0.799,1.121c-0.588-0.448-1.162-0.938-1.751-1.724v2.704h-1.288v-2.648c-1.107,1.387-1.947,1.961-2.522,2.353l-0.728-1.219c1.639-0.784,2.787-2.156,2.941-2.325h-2.634v-1.204h2.942V400.326z M364.064,408.563c-1.036,1.009-2.871,2.185-5.238,3.012l-0.7-1.442c2.899-0.826,4.538-2.073,4.916-2.381h-4.86v-1.247h5.883v-1.051h1.429v1.051h5.855v1.247h-4.776c0.294,0.252,2.115,1.751,4.874,2.395l-0.742,1.415c-2.367-0.757-4.188-2.045-5.211-3.096v3.418h-1.429V408.563z M367.565,399.164v5.001h-1.429v-5.001H367.565z M370.787,398.716v6.233c0,0.098,0,0.448-0.14,0.63c-0.168,0.238-0.49,0.393-0.854,0.393h-2.06l-0.168-1.401h1.345c0.448,0,0.448-0.294,0.448-0.434v-5.421H370.787z"/>
	</g>
	<g id="fukui" class="js-pre">
		<polygon fill-rule="evenodd" clip-rule="evenodd" fill="#6FBA2C" class="js-pre-bg" points="290.008,314.002 289.986,359.989 317.992,359.989 317.992,314.002 		"/>
		<path fill="#FFFFFF" d="M302.536,330.481c-0.505-0.645-0.785-1.009-1.219-1.639v6.023h-1.415v-5.323c-0.728,0.715-1.036,0.938-1.457,1.219l-0.56-1.499c1.709-1.148,2.83-2.605,3.488-3.978h-3.208v-1.26h1.737v-2.284h1.415v2.284h1.513v1.26c-0.196,0.575-0.393,1.009-1.177,2.13c0.574,0.672,0.826,0.966,1.484,1.498v-0.784h7.69v6.458h-7.69v-5.099L302.536,330.481z M311.29,323.31h-8.517v-1.163h8.517V323.31z M310.366,327.399h-6.71v-3.348h6.71V327.399z M306.388,329.221h-1.933v1.597h1.933V329.221z M306.388,331.854h-1.933v1.61h1.933V331.854z M309.049,325.103h-4.076v1.247h4.076V325.103zM309.512,329.221h-1.919v1.597h1.919V329.221z M309.512,331.854h-1.919v1.61h1.919V331.854z"/>
		<path fill="#FFFFFF" d="M301.429,342.322h-3.039v-1.415h3.039v-2.661h1.443v2.661h3.852v-2.661h1.443v2.661h2.886v1.415h-2.886v3.376h3.109v1.429h-3.109v4.272h-1.443v-4.272h-4.202c-0.238,0.896-0.714,2.409-3.277,4.272l-1.079-1.247c0.574-0.35,2.228-1.387,2.815-3.025h-2.843v-1.429h3.193c0.056-0.294,0.098-0.645,0.098-0.925V342.322z M302.872,344.704c0,0.266-0.015,0.63-0.084,0.994h3.936v-3.376h-3.852V344.704z"/>
	</g>
</g>
<!-- 東海 -->
<g id="tokai" class="js-area">
	<g id="shizuoka" class="js-pre">
		<path fill-rule="evenodd" clip-rule="evenodd" fill="#6FBA2C" class="js-pre-bg" d="M353.988,426.999v41.995h26.168c4.882,0,8.84-3.992,8.84-8.917v-6.074l0.005-0.011v-26.993H353.988z"/>
		<path fill="#FFFFFF" d="M377.867,434.126v1.261c-0.574,0.645-0.896,0.967-1.274,1.317h1.513v2.465h0.547v1.274h-0.547v2.563h-2.675v2.102c0,0.462-0.225,0.967-0.98,0.967h-1.962l-0.279-1.359h1.54c0.112,0,0.448,0,0.448-0.392v-1.317h-2.199v-1.246h2.199v-1.317h-2.409v-1.274h2.409v-1.19h-1.862v-1.121c-0.042,0.028-0.084,0.057-0.183,0.127l-0.952-0.995v0.645h-1.947v0.7h2.535v1.135h-6.275v-1.135h2.466v-0.7h-1.905v-1.064h1.905v-0.658h-2.34v-1.149h2.34v-0.854h1.274v0.854h2.438v1.149h-2.438v0.658h1.947v0.364c1.106-0.742,2.045-1.877,2.619-3.096l1.316,0.28c-0.14,0.364-0.224,0.56-0.475,1.008H377.867z M371.2,439.043v6.121c0,0.813-0.448,0.911-1.022,0.911h-1.737l-0.266-1.275h1.316c0.112,0,0.435-0.014,0.435-0.336v-0.784h-2.563v2.396h-1.289v-7.032H371.2z M369.926,440.094h-2.563v0.742h2.563V440.094z M369.926,441.858h-2.563v0.784h2.563V441.858z M373.777,435.387c-0.658,0.799-0.925,1.023-1.274,1.317h2.241c0.154-0.112,0.883-0.673,1.429-1.317H373.777z M376.859,437.978h-1.429v1.19h1.429V437.978z M376.859,440.443h-1.429v1.317h1.429V440.443z"/>
		<path fill="#FFFFFF" d="M365.905,449.903h12.326v11.444c0,0.967-0.616,1.247-1.358,1.247h-2.396l-0.21-1.415h2.115c0.364,0,0.435-0.196,0.435-0.462v-9.47h-9.483v11.347h-1.429V449.903z M367.782,453.588h1.919c-0.154-0.743-0.546-1.737-0.588-1.821l1.414-0.28c0.126,0.364,0.448,1.345,0.631,2.102h1.891c0.294-0.813,0.421-1.177,0.673-2.088l1.4,0.28c-0.266,0.827-0.364,1.148-0.603,1.808h1.835v1.288h-3.6v4.37h1.513v-3.697h1.387v4.986h-7.144v-4.986h1.331v3.697h1.555v-4.37h-3.614V453.588z"/>
	</g>
	<g id="gifu" class="js-pre">
		<rect x="321.988" y="314.002" fill-rule="evenodd" clip-rule="evenodd" fill="#6FBA2C" class="js-pre-bg" width="28.006" height="109"/>
		<path fill="#FFFFFF" d="M337.567,359.863c0.532,1.387,1.121,2.073,1.779,2.76c0.742-0.813,1.331-1.568,1.723-2.97h-5.127v-1.345h2.662v-2.003h-2.76v-1.358h2.76v-1.751h1.429v1.751h3.264v1.358h-3.264v2.003h2.619v1.037c-0.631,2.157-1.303,3.109-2.227,4.174c0.938,0.645,1.611,1.009,2.928,1.471l-0.826,1.401c-1.723-0.701-2.451-1.261-3.166-1.85c-0.896,0.715-1.681,1.261-3.277,1.835l-0.7-1.177v0.267h-5.029v-10.352h1.19v8.951h0.687v-10.87h1.232v10.87h0.686v-8.951h1.233v9.932c1.092-0.337,1.681-0.532,2.941-1.471c-0.995-1.093-1.513-1.934-1.905-3.334L337.567,359.863z"/>
		<path fill="#FFFFFF" d="M343.213,380.333h-5.842v2.479h-1.429v-2.479h-5.757v-1.288h5.757v-0.98h-4.636v-7.467h4.188c0.21-0.378,0.379-0.784,0.435-0.924l1.471,0.168c-0.028,0.07-0.224,0.477-0.378,0.756h5.028v3.194h-9.343v0.897h9.595v3.376h-4.931v0.98h5.842V380.333z M332.707,371.747v0.896h7.942v-0.896H332.707z M332.707,375.823v1.078h8.208v-1.078H332.707z"/>
	</g>
	<g id="aichi" class="js-pre">
		<rect x="321.988" y="426.999" fill-rule="evenodd" clip-rule="evenodd" fill="#6FBA2C" class="js-pre-bg" width="28.004" height="41.995"/>
		<path fill="#FFFFFF" d="M330.526,444.535c0.238,0.014,0.477,0.027,0.826,0.027c1.905,0,3.306-0.35,3.923-0.518c-0.827-0.448-1.373-0.854-1.821-1.275c-0.952,0.505-1.639,0.687-2.157,0.827l-0.658-1.205c1.905-0.392,2.955-0.854,4.244-2.003c-0.294-0.126-0.546-0.378-0.546-0.925v-1.526h1.261v1.12c0,0.28,0.126,0.28,0.224,0.28h2.228c0.168,0,0.28-0.111,0.322-0.28c0.027-0.084,0.111-0.532,0.14-0.63l1.247,0.182c-0.253,1.514-0.477,1.835-1.247,1.835h-2.003c-0.154,0.169-0.322,0.379-0.686,0.715h5.197v1.162c-0.337,0.337-0.982,0.995-2.368,1.751c2.382,0.533,4.091,0.547,4.931,0.561l-0.546,1.415c-2.073-0.112-4.118-0.477-6.051-1.233c-2.676,0.966-5.127,1.107-6.038,1.148L330.526,444.535z M332.684,435.948c-0.126-0.448-0.182-0.63-0.294-1.051c-0.238,0-0.911,0.015-1.106,0.015l-0.309-1.233c3.138,0,8.419-0.069,11.276-0.855l0.77,1.261c-0.309,0.084-0.448,0.126-1.064,0.225c-0.169,0.364-0.505,0.994-0.938,1.639h2.255v2.661h-1.274c0.686,0.785,0.939,1.205,1.176,1.583l-1.232,0.799c-0.364-0.673-1.513-2.087-2.017-2.619l1.093-0.743c0.266,0.225,0.475,0.421,0.868,0.854v-1.372h-4.902c0.448,0.378,0.49,0.406,0.98,0.952l-0.953,0.883c-0.658-0.743-0.771-0.869-1.232-1.303l0.616-0.532h-4.273v1.498h-1.414v-2.661H332.684z M334.084,438.315c-0.378,0.868-1.176,1.947-2.157,2.732l-1.092-0.854c1.246-0.813,1.904-1.989,2.087-2.325L334.084,438.315z M336.367,435.948c-0.069-0.336-0.168-0.813-0.237-1.135c-0.77,0.028-1.541,0.042-2.325,0.057c0.195,0.658,0.21,0.714,0.308,1.078H336.367zM334.49,442.321c0.435,0.337,1.177,0.799,2.325,1.205c1.261-0.477,1.808-0.967,2.088-1.205H334.49z M339.463,435.948c0.225-0.336,0.561-0.952,0.827-1.442c-0.435,0.042-2.241,0.195-2.83,0.224c0.042,0.196,0.225,1.051,0.252,1.219H339.463z"/>
		<path fill="#FFFFFF" d="M336.088,461.545c-1.051-1.345-1.317-1.737-1.863-2.689c-0.631,1.61-1.499,2.689-2.899,3.67l-1.022-1.247c1.765-1.106,2.773-2.633,3.109-4.721H330.4v-1.387h3.124v-2.661h-0.728c-0.294,0.547-0.519,0.967-1.219,1.976l-1.261-0.813c0.448-0.532,1.61-1.947,2.129-4.329l1.471,0.253c-0.252,0.813-0.336,1.064-0.504,1.513h3.684v1.4h-2.171v2.661h2.353v1.387h-2.451c-0.028,0.238-0.042,0.28-0.057,0.406c0.7,1.499,1.163,2.088,2.466,3.572L336.088,461.545z M343.175,462.259h-5.505v-12.074h5.505V462.259z M341.704,451.558h-2.661v9.329h2.661V451.558z"/>
	</g>
	<g id="mie" class="js-pre">
		<path fill-rule="evenodd" clip-rule="evenodd" fill="#6FBA2C" class="js-pre-bg" d="M289.986,415.013v75.985L309.158,491c4.877,0,8.83-4.319,8.83-9.231v-12.863c0.001,0,0.004-53.894,0.004-53.894H289.986z"/>
		<path fill="#FFFFFF" d="M297.109,448.26h13.181v1.429h-13.181V448.26z M297.81,438.37h11.892v1.429H297.81V438.37zM298.524,443.034h10.394v1.443h-10.394V443.034z"/>
		<path fill="#FFFFFF" d="M304.365,456.333h5.785v1.177h-5.785v0.686h4.721v4.721h-4.721v0.729h4.973v1.148h-4.973v0.687h5.925v1.219h-13.139v-1.219h5.841v-0.687h-4.86v-1.148h4.86v-0.729h-4.636v-4.721h4.636v-0.686h-5.673v-1.177h5.673v-0.658c-1.652,0.056-2.564,0.07-4.65,0.056l-0.308-1.204c0.91,0.014,1.372,0.014,2.003,0.014c4.734,0,7.479-0.434,8.656-0.616l0.532,1.135c-1.261,0.224-2.423,0.393-4.86,0.546V456.333z M302.992,459.261h-3.207v0.799h3.207V459.261z M302.992,461.04h-3.207v0.798h3.207V461.04z M307.657,459.261h-3.292v0.799h3.292V459.261z M307.657,461.04h-3.292v0.798h3.292V461.04z"/>
	</g>
</g>
<!-- 関西 -->
<g id="kansai" class="js-area">
	<g id="shiga" class="js-pre">
		<rect x="289.986" y="363.986" fill-rule="evenodd" clip-rule="evenodd" fill="#6FBA2C" class="js-pre-bg" width="28.006" height="47.045"/>
		<path fill="#FFFFFF" d="M300.219,380.087c-0.252,0.77-1.064,3.025-2.269,4.818l-1.107-1.204c0.715-0.98,1.737-2.998,2.199-4.371L300.219,380.087z M297.712,375.772c0.448,0.21,1.316,0.645,2.213,1.358l-0.897,1.149c-0.532-0.421-1.331-0.967-2.129-1.359L297.712,375.772z M298.271,372.047c0.631,0.322,1.625,0.952,2.157,1.33l-0.84,1.177c-0.645-0.504-1.373-0.98-2.129-1.4L298.271,372.047z M305.29,377.243c0.126,0.126,0.182,0.183,0.434,0.42c0.406-0.994,0.561-1.456,0.883-2.591h-3.656c-0.294,0.994-0.897,2.591-1.387,3.403c0.267,0.295,0.518,0.603,0.827,1.037c0.672-1.541,0.952-2.283,1.162-2.857l1.289,0.406c-0.785,2.059-2.451,5.322-2.899,6.135c0.392-0.042,1.274-0.126,1.526-0.154c-0.196-1.05-0.28-1.387-0.351-1.681l1.219-0.21c0.364,1.289,0.519,2.143,0.715,3.586l-1.345,0.238c-0.028-0.351-0.042-0.477-0.07-0.784c-0.645,0.126-2.871,0.462-3.908,0.546l-0.224-1.303c0.154-0.014,0.897-0.084,1.064-0.112c0.378-0.658,0.826-1.625,1.219-2.451c-0.238-0.308-1.415-1.863-2.241-2.535l0.728-1.121c0.126,0.127,0.266,0.253,0.378,0.351c0.294-0.7,0.63-1.526,0.91-2.493h-1.12v-1.316h2.549c-0.126-0.505-0.168-0.617-0.56-1.64l1.442-0.322c0.336,0.827,0.519,1.766,0.56,1.962h2.059c0.252-0.561,0.463-1.261,0.658-1.962l1.569,0.238c-0.098,0.267-0.309,0.841-0.784,1.724h2.339v1.316h-2.325c-0.336,1.232-0.841,2.563-1.331,3.558c0.379,0.435,0.603,0.728,0.799,1.009c0.322-0.729,0.883-2.018,1.191-3.067l1.316,0.322c-0.672,2.114-2.017,4.916-2.787,6.247c0.309-0.042,1.163-0.126,1.499-0.168c-0.154-0.869-0.267-1.19-0.378-1.569l1.261-0.266c0.126,0.406,0.616,1.946,0.77,3.613l-1.358,0.267c-0.028-0.351-0.042-0.574-0.098-0.883c-0.477,0.099-2.815,0.448-3.348,0.547l-0.28-1.317c0.069,0,0.28-0.027,0.42-0.042c0.267-0.49,0.672-1.274,1.177-2.353c-0.393-0.603-1.415-1.877-2.143-2.508L305.29,377.243z"/>
		<path fill="#FFFFFF" d="M303.735,389.211c-0.085,1.863-0.364,2.844-0.477,3.11c-0.294,0.7-0.995,0.771-1.205,0.771h-1.442l-0.196-1.317h1.358c0.337,0,0.547,0,0.659-1.372h-1.779c-0.574,1.709-1.821,2.507-2.857,2.955l-0.686-1.204c0.672-0.253,1.611-0.728,2.115-1.751h-2.06v-1.191h2.409c0.07-0.378,0.099-0.546,0.127-0.854h1.33c-0.027,0.364-0.042,0.533-0.098,0.854H303.735z M309.744,401.538c-1.681-0.183-2.815-0.49-4.398-1.219l0.742-0.896h-4.79l0.687,0.854c-1.317,0.715-3.46,1.121-4.301,1.219l-0.532-1.219c1.387-0.126,2.913-0.519,3.684-0.854h-2.339v-5.869h10.422v5.869h-2.34c1.261,0.477,2.13,0.7,3.74,0.799L309.744,401.538z M307.517,394.534h-7.605v0.686h7.605V394.534z M307.517,396.033h-7.605v0.714h7.605V396.033z M307.517,397.574h-7.605v0.784h7.605V397.574z M309.912,388.89v3.865h-5.28v-3.865H309.912zM308.582,390.023h-2.634v1.569h2.634V390.023z"/>
	</g>
	<g id="kyoto" class="js-pre">
		<rect x="241.992" y="332.011" fill-rule="evenodd" clip-rule="evenodd" fill="#6FBA2C" class="js-pre-bg" width="43.997" height="57.994"/>
		<path fill="#FFFFFF" d="M248.761,367.228c1.807-1.163,2.774-2.592,3.11-3.067l1.247,0.756c-0.266,0.378-1.597,2.27-3.334,3.432L248.761,367.228z M261.999,358.038h-13.084v-1.429h5.743v-1.19h1.514v1.19h5.827V358.038z M260.598,363.739h-4.426v3.572c0,0.364-0.042,1.345-1.248,1.345h-2.283l-0.266-1.471h1.947c0.309,0,0.462,0,0.462-0.378v-3.068h-4.455v-4.65h10.268V363.739zM259.169,360.392h-7.438v2.045h7.438V360.392z M258.833,364.118c1.022,1.33,1.933,2.143,3.235,2.899l-0.98,1.246c-1.652-0.98-2.396-1.849-3.516-3.39L258.833,364.118z"/>
		<path fill="#FFFFFF" d="M274.834,356.624c-1.036,1.793-1.4,2.283-1.919,2.97h1.401v1.26h-2.466c-0.42,0.421-0.686,0.659-1.19,1.079h2.983v6.401h-5.729v-4.58c-0.336,0.195-0.406,0.238-0.826,0.448l-0.532-1.247c1.163-0.574,2.129-1.107,3.39-2.102h-3.207v-1.26h2.731v-1.695h-2.325v-1.274h2.325v-1.163h1.33v1.163h1.947v0.84c0.351-0.602,0.504-0.896,0.757-1.387L274.834,356.624z M272.354,363.123h-3.109v1.401h3.109V363.123z M272.354,365.686h-3.109v1.442h3.109V365.686z M271.248,359.594c0.351-0.421,0.616-0.743,1.233-1.695H270.8v1.695H271.248z M279.821,357.044c-0.351,1.106-1.247,2.928-1.64,3.642c1.023,1.037,1.863,2.283,1.863,3.965c0,0.98-0.308,1.891-0.84,2.269c-0.406,0.295-0.771,0.337-1.43,0.337h-0.924l-0.154-1.415h0.813c0.645,0,1.022-0.126,1.022-1.051c0-1.723-0.98-2.913-1.905-3.88c0.995-2.045,1.387-3.166,1.625-3.866h-1.863v11.542h-1.429V355.77h4.861V357.044z"/>
	</g>
	<g id="nara" class="js-pre">
		<rect x="266.008" y="393.971" fill-rule="evenodd" clip-rule="evenodd" fill="#6FBA2C" class="js-pre-bg" width="19.982" height="60.045"/>
		<path fill="#FFFFFF" d="M273.963,418.285c-1.19,1.429-2.073,2.171-3.502,3.011l-0.813-1.218c1.652-0.854,2.507-1.695,3.208-2.564L273.963,418.285z M272.856,413.522c-1.079,0.687-1.85,0.98-2.466,1.219l-0.658-1.387c1.036-0.379,3.166-1.149,4.189-2.479h-3.936v-1.331h4.665c0.195-0.448,0.294-0.771,0.406-1.205l1.61,0.099c-0.168,0.435-0.294,0.756-0.462,1.106h6.514v1.331h-3.853c0.742,0.924,2.409,1.877,4.146,2.409l-0.7,1.471c-0.56-0.238-1.373-0.589-2.536-1.387v0.91h-6.919V413.522z M282.857,416.884h-5.715v3.586c0,1.037-0.799,1.037-1.177,1.037h-1.947l-0.322-1.429h1.639c0.169,0,0.379,0,0.379-0.364v-2.83h-5.897v-1.345h13.041V416.884z M279.271,412.99c-1.4-1.037-1.891-1.821-2.087-2.115h-1.681c-0.574,0.966-1.191,1.555-1.92,2.115H279.271zM281.905,421.086c-1.555-0.924-1.976-1.33-3.32-2.773l1.19-0.91c1.457,1.681,2.34,2.157,3.082,2.507L281.905,421.086z"/>
		<path fill="#FFFFFF" d="M282.564,432.983c-0.519,0.42-1.625,1.288-3.643,2.129c1.556,0.854,2.76,1.177,4.063,1.429l-0.897,1.527c-1.667-0.505-6.205-2.046-7.508-5.8h-2.144v3.923c1.751-0.196,2.564-0.295,4.273-0.645l0.015,1.288c-1.934,0.463-4.665,0.883-6.668,1.079l-0.252-1.429c0.252-0.028,1.008-0.112,1.204-0.126v-10.17h4.581v-1.303h1.442v1.303h4.608v6.065L282.564,432.983z M280.182,427.506h-7.746v1.121h7.746V427.506z M280.182,429.832h-7.746v1.19h7.746V429.832zM276.008,432.269c0.294,0.673,0.616,1.177,1.681,2.031c0.547-0.252,2.073-0.952,3.446-2.031H276.008z"/>
	</g>
	<g id="osaka" class="js-pre">
		<rect x="241.996" y="393.971" fill-rule="evenodd" clip-rule="evenodd" fill="#6FBA2C" class="js-pre-bg" width="20.015" height="60.045"/>
		<path fill="#FFFFFF" d="M245.641,419.951c4.16-1.582,5.477-5.099,5.827-6.779h-5.547v-1.484h5.687v-3.349h1.555v3.349h5.813v1.484h-5.547c0.574,2.983,2.242,5.785,5.883,6.779l-0.994,1.541c-4.245-1.891-5.365-4.594-5.842-6.261c-0.966,2.549-3.025,5.154-5.855,6.177L245.641,419.951z"/>
		<path fill="#FFFFFF" d="M246.188,425.321h4.398v1.204c-0.322,1.093-0.63,2.073-1.177,3.264c0.868,1.065,1.177,2.521,1.177,3.376c0,1.205-0.448,2.157-1.877,2.157h-0.673l-0.168-1.372h0.603c0.616,0,0.784-0.169,0.784-1.037c0-1.541-0.686-2.381-1.219-2.97c0.056-0.154,0.896-2.213,1.093-3.418h-1.498v11.486h-1.443V425.321z M254.592,430.685c0.098,0.561,0.28,1.695,1.177,3.012c1.051-1.442,1.219-2.885,1.274-3.502h-4.23c-0.056,2.76-0.112,5.268-2.115,7.816l-1.177-1.022c1.765-2.031,1.877-4.944,1.877-7.256v-4.412h7.62v1.358h-6.206v2.213h5.715v1.303c-0.112,0.673-0.49,2.928-1.85,4.623c1.163,1.148,2.157,1.583,2.676,1.807l-0.883,1.387c-0.49-0.252-1.625-0.84-2.815-2.115c-0.546,0.476-1.471,1.233-3.166,2.115l-0.714-1.303c0.84-0.378,1.961-0.924,2.997-1.919c-1.106-1.723-1.372-3.165-1.499-3.88L254.592,430.685z"/>
	</g>
	<g id="wakayama" class="js-pre">
		<path fill-rule="evenodd" clip-rule="evenodd" fill="#6FBA2C" class="js-pre-bg" d="M241.999,457.985v24.096c0,4.929,4.024,8.924,8.988,8.924l35.002-0.007v-33.013H241.999z"/>
		<path fill="#FFFFFF" d="M247.994,470.786h2.115v1.317h-2.073c0.28,0.49,0.995,1.681,2.171,2.633l-0.686,1.415c-0.616-0.589-1.106-1.373-1.527-2.102v6.164h-1.429v-5.827c-0.35,0.714-1.009,1.919-2.283,3.291l-0.561-1.751c0.659-0.644,1.471-1.513,2.62-3.823h-2.409v-1.317h2.633v-1.793c-1.037,0.112-1.541,0.126-2.283,0.154l-0.322-1.316c0.602-0.015,3.138-0.112,5.491-0.7l0.504,1.33c-0.63,0.141-1.037,0.225-1.961,0.364V470.786z M256.706,479.821h-6.19v-11.738h6.19V479.821z M255.264,469.441h-3.334v8.993h3.334V469.441z"/>
		<path fill="#FFFFFF" d="M258.478,472.51v-3.152h3.922v2.634h0.378c0.336,0,0.379-0.112,0.379-0.421v-2.885h-5.127v-1.191h7.27v1.191h-0.897v3.6c0,0.967-0.742,1.078-0.938,1.078h-1.513l-0.126-0.854H258.478z M267.05,471.291h1.373v1.639c0,2.27,1.051,4.524,2.787,6.023l-0.98,1.261c-1.667-1.64-2.144-3.166-2.438-4.385c-0.28,1.177-0.813,2.745-2.732,4.385l-0.658-1.093c0,1.051-0.672,1.093-1.078,1.093h-1.709l-0.225-1.261h-2.913v-3.418h3.922v3.264h0.28c0.477,0,0.477,0,0.477-0.448v-3.502h-5.127v-1.205h7.27v1.205h-0.897v4.048c1.358-0.91,2.648-3.235,2.648-5.897V471.291z M261.223,470.366h-1.583v1.12h1.583V470.366z M261.223,476.529h-1.583v1.429h1.583V476.529z M271.056,469.26v1.345c-0.14,0.784-0.42,2.059-1.064,3.334l-1.232-0.575c0.462-0.897,0.771-1.765,0.967-2.759h-2.731c-0.435,1.148-0.785,1.849-1.233,2.438l-1.176-0.925c1.414-2.115,1.708-4.063,1.82-5.057l1.513,0.154c-0.153,0.854-0.266,1.316-0.476,2.045H271.056z"/>
		<path fill="#FFFFFF" d="M278.739,467.06v11.346h3.838v-8.937h1.513v10.407h-12.172V469.47h1.498v8.937h3.811V467.06H278.739z"/>
	</g>
	<g id="hyogo" class="js-pre">
		<rect x="213.007" y="332.011" fill-rule="evenodd" clip-rule="evenodd" fill="#6FBA2C" class="js-pre-bg" width="24.988" height="83.958"/>
		<path fill="#FFFFFF" d="M231.475,373.256c-1.569-0.826-2.662-1.569-3.964-2.899l1.009-0.743h-5.463l1.121,0.827c-1.149,1.233-2.788,2.269-4.034,2.844l-0.869-1.317c2.367-1.078,3.152-1.835,3.642-2.353h-3.642v-1.372h1.639v-7.256c4.833,0.042,7.887-0.196,10.072-0.883l0.63,1.485c-3.124,0.588-5.715,0.686-9.217,0.714v1.387h9.231v1.373h-1.919v3.18h2.563v1.372h-3.446c1.247,1.093,2.129,1.724,3.558,2.326L231.475,373.256z M228.253,365.061h-5.855v3.18h5.855V365.061z"/>
		<path fill="#FFFFFF" d="M220.171,377.772h5.057v-1.008h1.457v1.008h5.617v1.275h-10.758v5.112c0,0.336-0.028,1.513-0.364,3.138c-0.253,1.247-0.533,1.709-1.009,2.479l-1.177-1.064c0.322-0.505,1.177-1.892,1.177-4.539V377.772z M232.217,388.375h-4.636v1.485h-1.331v-1.485h-4.706v-1.204h4.706v-0.826h-3.684v-4.482h3.684v-0.757h-4.426v-1.19h4.426v-0.631h1.331v0.631h4.524v1.19h-4.524v0.757h3.81v4.482h-3.81v0.826h4.636V388.375z M223.883,382.772v0.868h2.367v-0.868H223.883z M223.883,384.552v0.868h2.367v-0.868H223.883z M227.581,382.772v0.868h2.465v-0.868H227.581z M227.581,384.552v0.868h2.465v-0.868H227.581z"/>
	</g>
</g>
<!-- 中国 -->
<g id="tyugoku" class="js-area">
	<g id="tottori" class="js-pre">
		<rect x="184.003" y="332.011" fill-rule="evenodd" clip-rule="evenodd" fill="#6FBA2C" class="js-pre-bg" width="25.007" height="38.979"/>
		<path fill="#FFFFFF" d="M192.987,346.464c-0.098,0.588-0.336,1.877-1.456,3.208l-1.191-0.925c0.658-0.799,1.05-1.639,1.302-2.619L192.987,346.464z M193.225,344.839h10.016c-0.126,4.385-0.701,4.833-1.569,4.833h-2.494l-0.308-1.345h2.059c0.28,0,0.49-0.154,0.588-0.435c0.112-0.322,0.182-1.064,0.224-1.989h-9.987v-8.404h4.048c0.028-0.154,0.196-0.813,0.224-0.953l1.597,0.057c-0.042,0.154-0.252,0.771-0.28,0.896h4.973v4.748h-9.091v0.729h10.282v1.064h-10.282V344.839z M200.873,338.619h-7.648v0.827h7.648V338.619z M200.873,340.356h-7.648v0.854h7.648V340.356z M195.214,346.492c0.224,0.952,0.336,2.143,0.364,2.801l-1.527,0.141c0.028-0.98-0.098-2.186-0.196-2.844L195.214,346.492z M197.596,346.449c0.224,0.519,0.518,1.709,0.588,2.34l-1.345,0.182c-0.042-0.237-0.224-1.484-0.532-2.367L197.596,346.449z M199.865,346.197c0.28,0.393,0.603,1.135,0.729,1.541l-1.289,0.336c-0.182-0.518-0.448-1.134-0.701-1.61L199.865,346.197z"/>
		<path fill="#FFFFFF" d="M198.842,356.161c0.168,2.438,0.924,3.866,1.331,4.637c1.204-2.199,1.527-4.118,1.681-5.225h-4.609v-0.826h-0.7v11.458h-1.415v-2.55c-1.359,0.435-3.544,0.896-4.581,1.022l-0.266-1.387c0.196,0,0.728-0.098,0.896-0.126v-8.418h-0.813v-1.317h7.116v0.715h5.855v1.429c-0.617,3.937-1.695,5.757-2.241,6.668c1.008,1.345,2.017,2.045,2.647,2.451l-0.826,1.415c-0.546-0.393-1.527-1.107-2.704-2.605c-1.177,1.471-2.185,2.268-2.731,2.703l-0.924-1.261c0.574-0.406,1.624-1.177,2.746-2.773c-0.588-1.037-1.541-2.857-1.821-5.799L198.842,356.161z M192.567,354.747v1.751h2.564v-1.751H192.567z M192.567,357.759v1.751h2.564v-1.751H192.567z M195.13,360.798h-2.564v2.115c1.541-0.28,1.905-0.378,2.564-0.574V360.798z"/>
	</g>
	<g id="okayama" class="js-pre">
		<rect x="184.003" y="374.986" fill-rule="evenodd" clip-rule="evenodd" fill="#6FBA2C" class="js-pre-bg" width="25.007" height="40.983"/>
		<path fill="#FFFFFF" d="M190.816,380.842h12.327v11.444c0,0.967-0.616,1.247-1.359,1.247h-2.395l-0.21-1.415h2.115c0.364,0,0.434-0.196,0.434-0.462v-9.47h-9.483v11.347h-1.429V380.842z M192.693,384.526h1.919c-0.154-0.743-0.546-1.737-0.588-1.821l1.415-0.28c0.126,0.364,0.448,1.345,0.63,2.102h1.891c0.294-0.813,0.42-1.177,0.672-2.088l1.401,0.28c-0.266,0.826-0.364,1.148-0.602,1.808h1.835v1.288h-3.6v4.37h1.513v-3.697h1.387v4.986h-7.143v-4.986h1.331v3.697h1.555v-4.37h-3.614V384.526z"/>
		<path fill="#FFFFFF" d="M197.749,396.9v11.346h3.838v-8.936h1.513v10.407h-12.173V399.31h1.499v8.936h3.81V396.9H197.749z"/>
	</g>
	<g id="shimane" class="js-pre">
		<rect x="154.999" y="332.011" fill-rule="evenodd" clip-rule="evenodd" fill="#6FBA2C" class="js-pre-bg" width="25.007" height="38.979"/>
		<path fill="#FFFFFF" d="M168.253,347.837v-1.667h1.373v2.857h-8.419v-2.857h1.387v1.667h2.143v-2.115h-2.423v-8.293h3.964c0.126-0.252,0.238-0.603,0.308-0.896l1.583,0.07c-0.084,0.294-0.196,0.561-0.322,0.826h4.917v4.637h-9.007v0.687h10.295v1.078h-10.295v0.784h9.931c-0.154,3.824-0.476,5.071-1.933,5.071h-1.695l-0.252-1.373h1.401c0.546,0,0.7-0.126,0.798-0.645c0.098-0.588,0.154-1.358,0.168-1.946h-6.079v2.115H168.253z M171.307,338.521h-7.55v0.771h7.55V338.521z M171.307,340.217h-7.55v0.826h7.55V340.217z"/>
		<path fill="#FFFFFF" d="M160.661,361.568c1.079-1.261,1.779-2.76,2.297-4.538h-2.031v-1.345h2.101v-2.592h1.345v2.592h1.695v1.345h-1.695v0.728c0.729,1.568,1.471,2.213,1.947,2.619l-0.701,1.484c-0.658-0.882-0.868-1.246-1.247-2.045v6.43h-1.345v-6.611c-0.476,1.54-0.855,2.437-1.863,3.739L160.661,361.568z M165.326,364.664c0.224-0.028,0.911-0.112,1.148-0.14v-11.08h7.284v6.695h-3.18c0.182,0.49,0.406,1.065,0.784,1.695c0.882-0.616,1.443-1.233,1.849-1.682l1.135,0.967c-0.672,0.673-1.401,1.303-2.186,1.849c0.925,1.107,1.723,1.583,2.199,1.878l-0.938,1.4c-1.835-1.19-3.572-3.572-4.286-6.108h-1.261v4.217c1.499-0.211,1.933-0.337,2.297-0.448l0.168,1.274c-1.695,0.42-3.586,0.729-4.734,0.91L165.326,364.664zM167.875,354.761v1.358h4.455v-1.358H167.875z M167.875,357.353v1.442h4.455v-1.442H167.875z"/>
	</g>
	<g id="hiroshima" class="js-pre">
		<rect x="154.999" y="374.986" fill-rule="evenodd" clip-rule="evenodd" fill="#6FBA2C" class="js-pre-bg" width="25.007" height="40.983"/>
		<path fill="#FFFFFF" d="M161.764,381.822h4.902v-1.4h1.443v1.4h5.659v1.401h-10.562v4.454c0,0.49,0,1.513-0.392,3.25c-0.294,1.303-0.868,2.101-1.232,2.605l-1.107-1.093c0.42-0.603,1.289-1.863,1.289-4.455V381.822z M172.045,393.617c-0.238-0.728-0.322-0.995-0.476-1.415c-1.877,0.351-6.122,0.757-8.363,0.868l-0.266-1.526c0.28-0.015,0.883-0.042,1.345-0.07c0.995-2.228,2.017-6.359,2.312-7.718l1.513,0.378c-0.924,3.768-1.793,6.037-2.339,7.27c2.087-0.084,3.698-0.195,5.351-0.364c-0.574-1.4-1.023-2.255-1.695-3.306l1.303-0.616c1.079,1.625,2.129,3.754,2.815,5.884L172.045,393.617z"/>
		<path fill="#FFFFFF" d="M167.955,408.177v-1.667h1.373v2.857h-8.418v-2.857h1.387v1.667h2.143v-2.115h-2.423v-8.293h3.964c0.126-0.252,0.238-0.603,0.308-0.896l1.583,0.07c-0.084,0.294-0.196,0.56-0.322,0.826h4.917v4.637h-9.007v0.686h10.295v1.078h-10.295v0.784h9.931c-0.154,3.824-0.476,5.071-1.933,5.071h-1.695l-0.252-1.373h1.401c0.546,0,0.7-0.126,0.798-0.645c0.098-0.588,0.154-1.358,0.168-1.946h-6.079v2.115H167.955z M171.008,398.861h-7.55v0.771h7.55V398.861z M171.008,400.557h-7.55v0.826h7.55V400.557z"/>
	</g>
	<g id="yamaguchi" class="js-pre">
		<path fill-rule="evenodd" clip-rule="evenodd" fill="#6FBA2C" class="js-pre-bg" d="M135.894,332.011c-4.915,0-8.9,3.999-8.9,8.932v66.095c0,4.934,3.985,8.932,8.9,8.932h15.108v-83.958H135.894z"/>
		<path fill="#FFFFFF" d="M140.188,360.216v11.346h3.838v-8.936h1.513v10.407h-12.173v-10.407h1.499v8.936h3.81v-11.346H140.188z"/>
		<path fill="#FFFFFF" d="M145.175,389.468h-11.472v-11.738h11.472V389.468z M143.634,379.228h-8.391v8.74h8.391V379.228z"/>
	</g>
</g>
<!-- 四国 -->
<g id="shikoku" class="js-area">
	<g id="kagawa" class="js-pre">
		<path fill-rule="evenodd" clip-rule="evenodd" fill="#6FBA2C" class="js-pre-bg" d="M221.983,433.004h-38.976v27.01h47.991l0.013-18.072C231.012,437.005,226.97,433.004,221.983,433.004z"/>
		<path fill="#FFFFFF" d="M191.584,447.16c2.171-0.742,3.516-1.778,4.385-2.605h-4.216v-1.316h5.827v-0.883c-2.087,0.042-2.62,0.042-4.707,0.042l-0.322-1.218c5.757,0.027,8.741-0.225,10.842-0.757l0.658,1.331c-1.205,0.238-2.647,0.462-5.099,0.56v0.925h5.869v1.316h-4.314c0.687,0.617,2.381,1.962,4.553,2.704l-0.813,1.442c-0.7-0.364-0.896-0.476-1.261-0.687v5.436h-9.427v-5.449c-0.644,0.351-0.84,0.448-1.26,0.63L191.584,447.16z M197.58,447.371v-2.689c-0.364,0.448-1.149,1.414-3.012,2.689H197.58z M201.627,448.575h-6.682v1.232h6.682V448.575z M201.627,450.887h-6.682v1.316h6.682V450.887z M201.922,447.371c-1.625-1.079-2.465-2.06-2.97-2.647v2.647H201.922z"/>
		<path fill="#FFFFFF" d="M211.045,440.563h1.513v5.478c0,2.087,0,2.605-0.308,4.188c-0.252,1.274-0.756,2.535-1.667,3.571l-1.121-1.177c1.401-2.184,1.583-3.697,1.583-6.597V440.563z M215.64,441.025h1.526v11.71h-1.526V441.025z M220.486,440.563h1.513v13.21h-1.513V440.563z"/>
	</g>
	<g id="tokushima" class="js-pre">
		<path fill-rule="evenodd" clip-rule="evenodd" fill="#6FBA2C" class="js-pre-bg" d="M230.999,464.015h-47.991v26.976h38.976c4.986,0,9.028-4.001,9.028-8.938L230.999,464.015z"/>
		<path fill="#FFFFFF" d="M195.534,473.98c-0.168,0.435-0.518,1.345-1.232,2.535v7.116h-1.387v-5.337c-0.336,0.351-0.518,0.519-0.77,0.729l-0.658-1.611c0.966-0.826,2.073-2.129,2.759-3.936L195.534,473.98z M191.584,473.435c0.869-0.673,1.975-1.835,2.452-2.984l1.429,0.406c-0.967,2.13-2.788,3.502-3.264,3.866L191.584,473.435z M197.187,479.892c-0.406,1.443-0.812,2.34-1.442,3.32l-1.163-0.785c0.868-1.274,1.232-2.507,1.358-2.927L197.187,479.892z M199.204,478.001c0.854,0.448,1.485,0.84,2.144,1.372l-0.925,1.051c-0.798-0.7-1.316-1.022-2.311-1.555l0.7-0.868h-2.885v-4.413h3.39v-0.938h-3.852v-1.218h3.852v-0.981h1.429v0.981h4.104v1.218h-4.104v0.938h3.572v4.413H199.204z M197.187,474.723v2.115h1.079v-2.115H197.187z M197.58,479.808h1.345v1.934c0,0.279,0.07,0.378,0.392,0.378h1.625c0.21,0,0.308-0.07,0.322-0.294l0.084-0.967l1.387,0.28l-0.211,1.33c-0.14,0.883-1.05,0.896-1.176,0.896h-2.788c-0.379,0-0.98-0.168-0.98-1.064V479.808z M199.471,474.723v2.115h1.176v-2.115H199.471z M201.852,474.723v2.115h1.191v-2.115H201.852z M203.42,479.22c0.49,0.687,1.345,2.073,1.709,3.277l-1.274,0.616c-0.393-1.387-0.785-2.087-1.625-3.306L203.42,479.22z"/>
		<path fill="#FFFFFF" d="M216.942,481.741v-1.667h1.372v2.857h-8.418v-2.857h1.387v1.667h2.143v-2.115h-2.423v-8.293h3.964c0.126-0.252,0.238-0.603,0.308-0.897l1.583,0.07c-0.084,0.294-0.196,0.561-0.322,0.826h4.916v4.637h-9.007v0.687h10.295v1.078h-10.295v0.784h9.931c-0.154,3.824-0.476,5.071-1.933,5.071h-1.695l-0.252-1.373h1.401c0.546,0,0.7-0.126,0.798-0.645c0.098-0.588,0.154-1.358,0.168-1.946h-6.079v2.115H216.942z M219.996,472.426h-7.55v0.77h7.55V472.426z M219.996,474.121h-7.55v0.826h7.55V474.121z"/>
	</g>
	<g id="ehime" class="js-pre">
		<path fill-rule="evenodd" clip-rule="evenodd" fill="#6FBA2C" class="js-pre-bg" d="M138.027,433.004c-4.986,0-9.028,3.001-9.028,7.936v19.073h50.012v-27.01H138.027z"/>
		<path fill="#FFFFFF" d="M138.579,452.19c0.238,0.014,0.477,0.027,0.827,0.027c1.905,0,3.306-0.35,3.922-0.518c-0.826-0.448-1.372-0.854-1.821-1.275c-0.953,0.505-1.639,0.687-2.157,0.827l-0.658-1.205c1.905-0.392,2.956-0.854,4.244-2.003c-0.294-0.126-0.546-0.378-0.546-0.925v-1.526h1.261v1.12c0,0.28,0.126,0.28,0.224,0.28h2.227c0.168,0,0.28-0.112,0.322-0.28c0.028-0.084,0.112-0.532,0.14-0.63l1.247,0.182c-0.252,1.513-0.476,1.835-1.247,1.835h-2.003c-0.154,0.169-0.322,0.379-0.687,0.715h5.197v1.162c-0.336,0.337-0.98,0.995-2.367,1.751c2.381,0.532,4.09,0.547,4.931,0.561l-0.546,1.415c-2.073-0.112-4.118-0.477-6.051-1.232c-2.675,0.966-5.127,1.107-6.037,1.148L138.579,452.19z M140.736,443.603c-0.126-0.448-0.182-0.63-0.294-1.051c-0.238,0-0.911,0.015-1.107,0.015l-0.308-1.233c3.138,0,8.418-0.069,11.276-0.855l0.77,1.261c-0.308,0.084-0.448,0.126-1.064,0.225c-0.168,0.364-0.504,0.994-0.939,1.639h2.255v2.661h-1.275c0.687,0.785,0.939,1.205,1.177,1.583l-1.233,0.799c-0.364-0.673-1.513-2.087-2.017-2.619l1.093-0.743c0.266,0.225,0.476,0.421,0.869,0.854v-1.372h-4.903c0.448,0.378,0.49,0.406,0.98,0.952l-0.953,0.883c-0.658-0.743-0.77-0.869-1.232-1.303l0.616-0.532h-4.273v1.498h-1.415v-2.661H140.736z M142.137,445.97c-0.378,0.868-1.177,1.947-2.157,2.732l-1.093-0.854c1.247-0.813,1.905-1.989,2.087-2.325L142.137,445.97z M144.42,443.603c-0.07-0.336-0.168-0.813-0.238-1.135c-0.77,0.028-1.54,0.042-2.325,0.057c0.196,0.658,0.21,0.714,0.308,1.078H144.42zM142.543,449.976c0.434,0.337,1.176,0.799,2.325,1.205c1.261-0.477,1.807-0.967,2.087-1.205H142.543z M147.516,443.603c0.224-0.336,0.56-0.952,0.826-1.442c-0.434,0.042-2.241,0.195-2.83,0.224c0.042,0.196,0.224,1.051,0.252,1.219H147.516z"/>
		<path fill="#FFFFFF" d="M161.107,443.084c-0.028,2.746-0.322,4.692-1.008,6.57c0.602,0.504,0.77,0.7,1.008,0.98l-0.966,1.177c-0.21-0.295-0.322-0.434-0.658-0.799c-0.729,1.373-1.443,2.157-1.877,2.619l-1.008-1.093c0.434-0.406,1.148-1.078,1.877-2.465c-0.827-0.686-1.429-1.079-1.905-1.387c0.224-0.56,0.588-1.471,1.05-4.272h-1.05v-1.331h1.247c0.168-1.456,0.168-1.946,0.182-2.437l1.4,0.111c-0.042,0.477-0.098,1.064-0.252,2.325H161.107z M158.95,444.415c-0.322,1.975-0.714,3.208-0.882,3.74c0.28,0.168,0.462,0.266,0.953,0.63c0.602-1.736,0.798-3.642,0.868-4.37H158.95zM161.023,447.763v-1.093h1.877c0.028-0.448,0.028-0.49,0.042-0.714h-1.597v-1.135h7.802v1.135h-4.819c-0.014,0.154-0.056,0.561-0.07,0.714h5.141v1.093h-5.281c-0.056,0.351-0.112,0.574-0.14,0.742h4.693v0.995c-0.224,0.476-0.575,1.232-1.639,2.115c1.093,0.49,2.003,0.588,2.591,0.658l-0.756,1.4c-1.05-0.238-2.045-0.56-3.096-1.19c-1.064,0.645-2.101,1.009-2.746,1.232l-0.616-1.4c0.546-0.099,1.261-0.225,2.228-0.658c-0.546-0.477-0.841-0.869-1.107-1.233l1.121-0.532c0.308,0.322,0.63,0.659,1.219,1.065c0.798-0.547,1.009-0.869,1.317-1.331h-3.502c-0.294,0.896-0.798,2.255-2.773,4.09l-1.037-1.162c2.017-1.471,2.619-3.124,2.899-4.791H161.023z M161.261,441.403c1.835,0.042,4.973-0.056,7.228-0.728l0.658,1.289c-2.367,0.532-4.23,0.645-7.606,0.729L161.261,441.403z M162.186,444.779c-0.182-0.546-0.406-1.093-0.7-1.597l1.288-0.463c0.322,0.603,0.462,0.897,0.7,1.598L162.186,444.779z M164.819,444.471c-0.252-0.939-0.378-1.19-0.518-1.526l1.289-0.322c0.336,0.799,0.42,1.19,0.504,1.568L164.819,444.471z M166.738,444.079c0.196-0.267,0.714-0.939,1.05-1.808l1.275,0.575c-0.295,0.714-0.645,1.316-1.135,1.904L166.738,444.079z"/>
	</g>
	<g id="kouchi" class="js-pre">
		<path fill-rule="evenodd" clip-rule="evenodd" fill="#6FBA2C" class="js-pre-bg" d="M128.999,464.015v18.038c0,4.937,4.042,8.938,9.028,8.938h40.984v-26.976H128.999z"/>
		<path fill="#FFFFFF" d="M151.606,472.622h-13.097v-1.261h5.813v-0.938h1.513v0.938h5.771V472.622z M141.829,482.343v-3.376h6.485v3.32h0.966c0.224,0,0.336-0.084,0.336-0.364v-3.698h-9.091v5.379h-1.485v-6.527h12.046v5.379c0,1.121-0.742,1.148-0.855,1.148h-2.269l-0.224-1.261H141.829z M149.785,476.348h-9.483v-3.123h9.483V476.348z M148.342,474.261h-6.611v1.051h6.611V474.261zM146.983,480.032h-3.796v1.232h3.796V480.032z"/>
		<path fill="#FFFFFF" d="M162.06,482.567c-1.05-1.345-1.317-1.737-1.863-2.69c-0.63,1.61-1.499,2.69-2.9,3.67l-1.023-1.247c1.765-1.107,2.773-2.633,3.11-4.721h-3.012v-1.387h3.123v-2.661h-0.728c-0.294,0.546-0.519,0.967-1.219,1.976l-1.261-0.813c0.448-0.532,1.611-1.947,2.129-4.329l1.471,0.253c-0.252,0.813-0.336,1.064-0.504,1.513h3.684v1.4h-2.171v2.661h2.354v1.387h-2.452c-0.028,0.238-0.042,0.28-0.056,0.406c0.701,1.499,1.163,2.088,2.465,3.572L162.06,482.567z M169.148,483.281h-5.505v-12.074h5.505V483.281z M167.677,472.58h-2.662v9.329h2.662V472.58z"/>
	</g>
</g>
<!-- 九州 -->
<g id="kyusyu" class="js-area">
	<g id="fukuoka" class="js-pre">
		<path fill-rule="evenodd" clip-rule="evenodd" fill="#6FBA2C" class="js-pre-bg" d="M107.992,339.99v-0.097c0-4.919-3.996-8.907-8.925-8.907l-36.07,0.026v38.998h44.995l0-30.018C107.993,339.991,107.992,339.991,107.992,339.99z"/>
		<path fill="#FFFFFF" d="M74.298,352.688c-0.504-0.645-0.784-1.009-1.219-1.639v6.023h-1.415v-5.323c-0.729,0.714-1.037,0.938-1.457,1.219l-0.56-1.499c1.709-1.148,2.83-2.605,3.488-3.979h-3.208v-1.26h1.737v-2.283h1.415v2.283h1.513v1.26c-0.196,0.575-0.393,1.009-1.177,2.13c0.574,0.672,0.826,0.966,1.485,1.499v-0.785h7.69v6.458H74.9v-5.099L74.298,352.688z M83.053,345.516h-8.517v-1.163h8.517V345.516z M82.128,349.605h-6.71v-3.348h6.71V349.605z M78.15,351.427h-1.933v1.597h1.933V351.427z M78.15,354.061h-1.933v1.61h1.933V354.061z M80.812,347.309h-4.076v1.247h4.076V347.309zM81.274,351.427h-1.919v1.597h1.919V351.427z M81.274,354.061h-1.919v1.61h1.919V354.061z"/>
		<path fill="#FFFFFF" d="M88.198,344.381h12.327v11.444c0,0.967-0.616,1.247-1.359,1.247h-2.395l-0.21-1.415h2.115c0.364,0,0.434-0.196,0.434-0.462v-9.47h-9.483v11.347h-1.429V344.381z M90.075,348.065h1.919c-0.154-0.743-0.546-1.737-0.588-1.821l1.415-0.28c0.126,0.364,0.448,1.345,0.63,2.102h1.891c0.294-0.813,0.42-1.177,0.673-2.088l1.4,0.28c-0.266,0.826-0.364,1.148-0.602,1.808h1.835v1.288h-3.6v4.37h1.513v-3.697h1.387v4.986h-7.144v-4.986h1.331v3.697h1.555v-4.37h-3.614V348.065z"/>
	</g>
	<g id="saga" class="js-pre">
		<rect x="29.997" y="331.012" fill-rule="evenodd" clip-rule="evenodd" fill="#6FBA2C" class="js-pre-bg" width="29.004" height="38.999"/>
		<path fill="#FFFFFF" d="M41.078,346.455v2.662h-1.429v-6.935c-0.42,0.645-0.644,0.883-0.91,1.191l-0.714-1.682c1.176-1.345,2.157-3.655,2.451-5.785l1.527,0.196c-0.126,0.603-0.35,1.766-0.925,3.25v7.088c2.297-2.045,3.166-4.973,3.572-7.13h-2.605v-1.373h2.801c0.084-0.714,0.112-1.274,0.126-1.933h1.471c-0.028,0.504-0.056,1.135-0.14,1.933h4.973v1.373h-5.183c-0.098,0.561-0.266,1.429-0.588,2.535h5.309v1.373h-2.801v4.132h3.39v1.359h-8.068v-1.359h3.25v-4.132h-1.541c-1.051,2.605-2.269,3.894-2.717,4.356L41.078,346.455z"/>
		<path fill="#FFFFFF" d="M44.902,353.324c-0.084,1.863-0.364,2.844-0.476,3.11c-0.294,0.7-0.995,0.771-1.204,0.771h-1.443l-0.196-1.317h1.359c0.336,0,0.546,0,0.658-1.372h-1.779c-0.574,1.709-1.821,2.507-2.857,2.955l-0.687-1.204c0.672-0.253,1.611-0.728,2.115-1.751h-2.059v-1.191h2.409c0.07-0.378,0.098-0.546,0.126-0.855h1.331c-0.028,0.364-0.042,0.533-0.098,0.855H44.902z M50.911,365.651c-1.681-0.183-2.815-0.49-4.398-1.219l0.743-0.896h-4.791l0.687,0.854c-1.316,0.715-3.46,1.121-4.3,1.219l-0.532-1.219c1.387-0.126,2.914-0.519,3.684-0.854h-2.339v-5.869h10.421v5.869h-2.339c1.261,0.477,2.129,0.7,3.74,0.799L50.911,365.651z M48.684,358.647h-7.606v0.686h7.606V358.647z M48.684,360.146h-7.606v0.714h7.606V360.146z M48.684,361.687h-7.606v0.784h7.606V361.687z M51.079,353.003v3.865h-5.281v-3.865H51.079z M49.749,354.137h-2.633v1.569h2.633V354.137z"/>
	</g>
	<g id="ooita" class="js-pre">
		<rect x="73" y="374.008" fill-rule="evenodd" clip-rule="evenodd" fill="#6FBA2C" class="js-pre-bg" width="34.992" height="38.998"/>
		<path fill="#FFFFFF" d="M83.486,390.469c4.16-1.582,5.477-5.099,5.827-6.779h-5.547v-1.484h5.687v-3.349h1.555v3.349h5.813v1.484h-5.547c0.574,2.983,2.241,5.785,5.883,6.779l-0.995,1.541c-4.244-1.891-5.365-4.594-5.841-6.261c-0.966,2.549-3.025,5.154-5.855,6.177L83.486,390.469z"/>
		<path fill="#FFFFFF" d="M85.839,400.53c-0.658,0.588-1.064,0.896-1.442,1.177l-1.009-1.274c1.779-0.981,3.558-3.068,4.202-5.1l1.457,0.379c-0.504,1.33-1.233,2.899-3.054,4.65h8.628c0,1.415-0.042,5.057-0.574,6.905c-0.364,1.261-1.316,1.303-1.933,1.303h-2.143l-0.28-1.484h2.144c0.798,0,0.924-0.7,1.037-1.316c0.112-0.631,0.294-1.947,0.28-3.992h-3.249c-0.364,3.781-2.312,5.574-5.211,6.793l-0.854-1.345c3.04-1.274,4.216-2.549,4.566-5.448h-2.563V400.53z M96.177,401.595c-1.149-0.771-3.572-3.235-4.539-5.841l1.457-0.421c0.728,1.751,2.227,3.923,4.104,5.043L96.177,401.595z"/>
	</g>
	<g id="miyazaki" class="js-pre">
		<rect x="73" y="417.002" fill-rule="evenodd" clip-rule="evenodd" fill="#6FBA2C" class="js-pre-bg" width="34.992" height="35.998"/>
		<path fill="#FFFFFF" d="M95.155,425.275v-1.905h-9.637v1.905h-1.457v-3.25h5.491v-1.036h1.471v1.036h5.575v3.25H95.155zM94.468,428.329h-3.46c-0.112,0.448-0.154,0.603-0.294,1.12h5.141v4.44H84.803v-4.44h4.398c0.154-0.462,0.21-0.63,0.322-1.12h-3.362v-3.992h8.307V428.329z M94.412,430.654h-8.194v2.031h8.194V430.654z M93.138,425.514h-5.645v1.61h5.645V425.514z"/>
		<path fill="#FFFFFF" d="M85.125,439.47v8.937h0.687v-10.898h1.148v10.898h0.687v-8.937h1.135v10.296h-4.819V439.47H85.125zM96.667,438.685v1.261h-2.479c0.743,0.855,1.387,1.316,2.704,1.723l-0.574,1.316c-2.367-0.939-3.278-2.732-3.334-2.844c-0.882,1.835-2.381,2.494-3.123,2.83l-0.701-1.331c0.575-0.196,1.905-0.658,2.465-1.694h-2.283v-1.261h2.676c0.07-0.434,0.07-0.785,0.084-1.177h1.457c-0.028,0.42-0.042,0.742-0.126,1.177H96.667z M96.892,444.372h-0.687v5.127c0,0.462,0,1.163-1.19,1.163h-1.807l-0.21-1.373h1.358c0.462,0,0.476-0.238,0.476-0.616v-4.301h-5.659v-1.261h7.718V444.372zM93.922,448.841H89.79v-3.796h4.132V448.841z M92.675,446.18H91.05v1.484h1.625V446.18z"/>
	</g>
	<g id="kumamoto" class="js-pre">
		<polygon fill-rule="evenodd" clip-rule="evenodd" fill="#6FBA2C" class="js-pre-bg" points="29.997,374.008 29.997,396.004 30.012,396.012 30.012,453 68.94,453 68.94,374.008 		"/>
		<path fill="#FFFFFF" d="M42.856,411.095c1.009-0.771,1.583-1.611,1.947-2.325h-1.163v-6.626h5.435v5.533c0,1.009-0.742,1.093-1.19,1.093h-1.681l-0.224-1.316h1.457c0.308,0,0.336-0.112,0.336-0.28v-0.603h-2.829v2.199h-0.127l1.247,0.616c-0.84,1.569-1.708,2.339-2.101,2.689L42.856,411.095z M48.711,402.046c-0.252-0.42-0.28-0.477-0.406-0.673c-1.289,0.154-3.235,0.322-5.168,0.406l-0.084-1.219c0.35,0,0.938-0.027,1.205-0.027c0.056-0.112,0.378-0.757,0.714-1.709l1.401,0.168c-0.126,0.336-0.28,0.729-0.659,1.484c1.191-0.069,1.317-0.069,1.877-0.126c-0.224-0.28-0.322-0.406-0.518-0.616l1.079-0.63c0.588,0.63,1.05,1.219,1.695,2.268L48.711,402.046z M44.943,403.993h2.829v-0.701h-2.829V403.993z M44.943,405.646h2.829v-0.714h-2.829V405.646z M48.753,409.273c0.042,0.785,0.042,1.527,0.042,1.611c0,0.462-0.014,0.588-0.042,0.98h-1.457c0.14-0.925,0.168-1.639,0.14-2.592H48.753z M51.639,409.204c0.308,0.854,0.504,1.765,0.616,2.591l-1.499,0.154c-0.14-1.555-0.336-2.213-0.448-2.592L51.639,409.204z M50.364,398.824h1.358v1.135c1.513-0.267,2.815-0.953,3.166-1.135l0.728,1.023c-1.289,0.658-2.787,1.022-3.894,1.261v0.7c0,0.336,0.21,0.336,0.42,0.336h1.919c0.42,0,0.518-0.098,0.588-0.336c0.014-0.056,0.112-0.925,0.126-1.051l1.317,0.351c-0.238,1.723-0.308,2.241-1.457,2.241h-2.941c-0.756,0-1.331-0.238-1.331-1.093V398.824z M50.364,403.685h1.358v1.303c0.911-0.154,2.367-0.588,3.292-1.19l0.644,1.177c-0.91,0.476-2.703,0.98-3.936,1.19v0.896c0,0.07,0.042,0.393,0.448,0.393h2.017c0.21,0,0.406-0.084,0.477-0.295c0.084-0.224,0.098-0.406,0.182-1.246l1.345,0.406c-0.224,1.765-0.546,2.339-1.569,2.339h-3.166c-1.05,0-1.092-0.925-1.092-1.12V403.685z M54.707,408.853c0.308,0.393,0.98,1.205,1.653,2.577l-1.331,0.7c-0.42-0.938-0.994-1.904-1.625-2.745L54.707,408.853z"/>
		<path fill="#FFFFFF" d="M43.01,417.669h5.855v-2.34h1.443v2.34h5.869v1.429h-5.225c1.345,2.745,3.32,4.412,5.393,5.631l-0.813,1.569c-1.457-1.037-3.628-2.816-5.225-5.995v4.454h2.885v1.4h-2.885v2.34h-1.443v-2.34h-2.802v-1.4h2.802v-4.454c-1.303,2.577-3.025,4.468-5.197,5.995l-0.84-1.401c2.564-1.709,4.132-3.277,5.393-5.799h-5.21V417.669z"/>
	</g>
	<g id="kagoshima" class="js-pre">
		<path fill-rule="evenodd" clip-rule="evenodd" fill="#6FBA2C" class="js-pre-bg" d="M30.012,456.997v25.02c0,4.964,3.968,8.988,8.862,8.988h60.257c4.894,0,8.861-4.024,8.861-8.988v-25.02H30.012z"/>
		<path fill="#FFFFFF" d="M48.302,478.956c0.462-0.027,0.84-0.056,1.274-0.126v-4.244h-1.163c-0.196,2.647-0.294,3.685-1.261,5.827l-1.232-0.952c0.294-0.589,1.065-2.171,1.065-5.436v-5.574h5.099v-1.037h1.429v1.037h5.561v1.261h-4.048v1.078h3.488v3.796h-3.292v1.751c0.98-0.224,2.157-0.63,3.152-1.148l0.7,1.205c-1.373,0.574-2.101,0.756-3.852,1.092v1.331c0,0.225,0.168,0.28,0.322,0.28h1.877c0.393,0,0.519-0.126,0.532-1.709l1.261,0.322c-0.126,2.087-0.154,2.703-1.261,2.703h-2.983c-0.546,0-1.079-0.364-1.079-0.952v-4.875h-2.997v1.163h2.465v1.246h-2.465v1.667c1.414-0.196,1.933-0.28,2.465-0.378v1.247c-0.798,0.182-2.087,0.448-4.945,0.77L48.302,478.956z M48.414,469.712v1.078h2.003v-1.078H48.414z M48.414,471.925v1.513h2.003v-1.513H48.414z M51.664,469.712v1.078h2.087v-1.078H51.664z M51.664,471.925v1.513h2.087v-1.513H51.664z M55.025,471.925v1.513h2.171v-1.513H55.025z"/>
		<path fill="#FFFFFF" d="M69.317,475.034c-0.393,3.082-1.569,4.623-4.931,5.491l-0.561-1.484c2.914-0.463,3.88-1.934,4.02-4.091L69.317,475.034z M64.751,474.754v-7.396h1.485v7.396H64.751z M68.043,467.765h8.166v6.64h-8.166V467.765z M69.457,469.053v1.387h5.351v-1.387H69.457z M69.457,471.631v1.484h5.351v-1.484H69.457z M72.861,474.95v3.712c0,0.28,0.21,0.379,0.434,0.379h1.695c0.392,0,0.42-0.309,0.448-0.476c0.028-0.252,0.126-1.345,0.14-1.625l1.485,0.364c-0.196,2.703-0.392,3.109-1.681,3.109h-2.591c-0.266,0-1.401,0-1.401-1.051v-4.412H72.861z"/>
		<path fill="#FFFFFF" d="M89.17,478.635v-1.667h1.373v2.857h-8.419v-2.857h1.387v1.667h2.143v-2.115h-2.423v-8.293h3.964c0.126-0.252,0.238-0.603,0.308-0.896l1.582,0.07c-0.084,0.294-0.196,0.561-0.322,0.826h4.917v4.637h-9.007v0.686h10.295v1.078H84.674v0.784h9.931c-0.154,3.824-0.476,5.071-1.933,5.071h-1.695l-0.252-1.373h1.401c0.546,0,0.7-0.126,0.798-0.645c0.098-0.588,0.154-1.358,0.168-1.946h-6.079v2.115H89.17z M92.224,469.319h-7.55v0.771h7.55V469.319z M92.224,471.015h-7.55v0.826h7.55V471.015z"/>
	</g>
	<g id="nagasaki" class="js-pre">
		<path fill-rule="evenodd" clip-rule="evenodd" fill="#6FBA2C" class="js-pre-bg" d="M8.922,330.986c-4.929,0-8.925,3.988-8.925,8.907v47.21c0,4.92,3.996,8.908,8.925,8.908l17.093-0.008v-64.993L8.922,330.986z"/>
		<path fill="#FFFFFF" d="M7.266,361.042c0.112-0.015,1.471-0.112,1.723-0.141v-3.781H7.266v-1.247h1.723v-6.094h10.337v1.289h-8.769v0.868h8.265v1.093h-8.265v0.869h8.265v1.092h-8.265v0.883h9.763v1.247h-1.499l0.77,0.672c-0.91,0.729-1.905,1.345-2.927,1.905c0.602,0.322,1.947,0.98,3.964,1.316l-0.672,1.541c-2.227-0.631-6.177-2.003-7.788-5.435h-1.611v3.67c1.331-0.112,2.199-0.183,3.74-0.49v1.316c-1.933,0.448-5.841,0.742-6.682,0.798L7.266,361.042z M13.639,357.12c0.21,0.392,0.518,0.952,1.765,1.807c0.714-0.406,1.933-1.261,2.591-1.807H13.639z"/>
		<path fill="#FFFFFF" d="M8.61,367.868v8.936h0.686v-10.897h1.148v10.897h0.686v-8.936h1.135v10.296H7.448v-10.296H8.61zM20.153,367.084v1.261h-2.479c0.743,0.854,1.387,1.316,2.704,1.723l-0.574,1.316c-2.367-0.938-3.278-2.731-3.334-2.844c-0.882,1.835-2.381,2.494-3.124,2.83l-0.701-1.331c0.575-0.196,1.905-0.658,2.465-1.694h-2.283v-1.261h2.676c0.07-0.435,0.07-0.785,0.084-1.177h1.457c-0.028,0.42-0.042,0.742-0.126,1.177H20.153z M20.377,372.771H19.69v5.127c0,0.462,0,1.163-1.19,1.163h-1.807l-0.21-1.373h1.358c0.462,0,0.477-0.238,0.477-0.616v-4.301h-5.659v-1.261h7.718V372.771zM17.407,377.239h-4.132v-3.796h4.132V377.239z M16.161,374.578h-1.625v1.484h1.625V374.578z"/>
	</g>
	<g id="okinawa" class="js-pre">
		<path fill-rule="evenodd" clip-rule="evenodd" fill="#6FBA2C" class="js-pre-bg" d="M206.402,216.992h-6.891c-4.757,0-8.613,4.062-8.613,9.073v12.098c-3.931,0.789-6.89,4.226-6.89,8.347v5.962c0,4.704,3.856,8.518,8.612,8.518h6.029c3.481,0,6.472-2.046,7.83-4.983c4.72-0.045,8.534-4.087,8.534-9.07v-20.87C215.015,221.054,211.159,216.992,206.402,216.992z"/>
		<path fill="#FFFFFF" d="M196.402,233.324c1.529-1.643,2.211-3.386,2.426-3.967l1.049,0.809c-0.19,0.442-1.074,2.628-2.59,4.422L196.402,233.324z M198.512,228.599c-0.505-0.43-0.897-0.72-2.034-1.263l0.67-1.15c1.023,0.48,1.541,0.783,2.147,1.2L198.512,228.599z M199.144,225.137c-0.632-0.505-1.061-0.809-2.072-1.326l0.72-1.062c0.619,0.278,1.137,0.544,2.135,1.251L199.144,225.137z M203.503,234.575v-3.676h-3.335v-5.964h3.335v-2.186h1.339v2.186h3.348v5.964h-3.348v3.676H203.503zM203.503,226.186h-2.021v3.449h2.021V226.186z M206.889,226.186h-2.046v3.449h2.046V226.186z"/>
		<path fill="#FFFFFF" d="M198.095,242.118c-0.227-0.278-0.821-0.847-1.579-1.428l0.518-1.049c0.139,0.102,0.202,0.152,0.366,0.266c0.505-0.783,0.796-1.339,1.251-2.299l1.175,0.404c-0.467,0.973-0.783,1.465-1.554,2.64c0.126,0.114,0.24,0.228,0.493,0.493c0.392-0.594,0.644-0.96,1.326-2.186l1.112,0.442c-0.872,1.377-1.744,2.716-2.527,3.702c0.139,0,0.834-0.063,1.377-0.088c-0.101-0.29-0.164-0.442-0.316-0.834l0.998-0.328c0.366,0.809,0.568,1.465,0.695,1.87v-0.872h2.817v-0.67h-2.615v-4.106h6.52v4.106h-2.805v0.67h2.944v4.359h-2.944v0.821c0,0.24,0.013,0.29,0.253,0.29h1.542c0.151,0,0.24-0.063,0.278-0.164c0.051-0.151,0.088-0.594,0.101-0.783l1.125,0.328c-0.126,1.011-0.228,1.77-1.011,1.77h-2.249c-1.011,0-1.137-0.442-1.137-1.036v-1.225h-2.817v-3.045l-0.96,0.341c-0.025-0.177-0.038-0.24-0.101-0.493l-0.771,0.076v5.445h-1.162v-5.344c-0.227,0.012-1.58,0.101-1.693,0.113l-0.126-1.162c0.329,0.013,0.531,0.013,0.783,0.013L198.095,242.118z M198.083,245.075c0.013,0.758-0.063,2.337-0.404,3.676l-1.099-0.594c0.316-0.934,0.442-2.501,0.417-3.184L198.083,245.075z M200.862,244.999c0.24,0.985,0.341,1.63,0.442,2.767l-1.124,0.164c0-0.985-0.101-1.869-0.291-2.817L200.862,244.999z M202.593,243.786v0.796h1.655v-0.796H202.593z M202.593,245.415v0.822h1.655v-0.822H202.593z M202.77,239.035v0.72h1.478v-0.72H202.77z M202.77,240.539v0.707h1.478v-0.707H202.77z M205.347,239.035v0.72h1.655v-0.72H205.347z M205.347,240.539v0.707h1.655v-0.707H205.347zM205.347,243.786v0.796h1.807v-0.796H205.347z M205.347,245.415v0.822h1.807v-0.822H205.347z"/>
		<path fill="#DEDEDE" d="M250.116,235.824l-5.955,30.283l-53.152,29.657l-31.105-12.184l0.7-1.806l30.382,11.782l51.652-28.978l5.576-29.119L250.116,235.824z"/>
	</g>
</g>
</svg>